<?xml version="1.0" encoding="UTF-8"?>
<svg width="5333.3" height="5333.3" version="1.1" viewBox="0 0 5333.3 5333.3" xml:space="preserve" xmlns="http://www.w3.org/2000/svg" xmlns:cc="http://creativecommons.org/ns#" xmlns:dc="http://purl.org/dc/elements/1.1/" xmlns:rdf="http://www.w3.org/1999/02/22-rdf-syntax-ns#"><metadata><rdf:RDF><cc:Work rdf:about=""><dc:format>image/svg+xml</dc:format><dc:type rdf:resource="http://purl.org/dc/dcmitype/StillImage"/><dc:title/></cc:Work></rdf:RDF></metadata><g transform="matrix(1.3333 0 0 -1.3333 0 5333.3)"><g transform="scale(.1)"><g transform="scale(2.454)" fill="#fff"><path transform="matrix(3.0562 0 0 -3.0562 0 16300)" d="m0-0.0039062v5333.3h5333.3v-5333.3zm3020.3 3299.6c41.104 20.299 34.182 12.075 44.867 46.156 4.715-5.5099 10.262-8.9658 16.062-6.7129 50.858 19.752 53.033 69.178 57.529 111.39 0.3396 0.1758 0.6756 0.3603 1.0156 0.5352-0.2707 0.5045-0.5334 1.0154-0.789 1.5312 0.1549 1.4176 0.3026 2.8517 0.4668 4.25 0.025 0.2107 0.044 0.4221 0.068 0.6328 3.8735 1.8319 7.9549 3.8045 12.352 5.9883 13.222 6.5675 22.321 20.266 28.203 34.463 9.5965 2.8139 18.893 5.7768 24.092 13.154 2.287-0.7386 4.8655-0.9271 6.0703 0.7226 0.3618 0.4954 0.7162 1.0046 1.0762 1.5039 4.3353 0.866 7.5313 2.3935 6.5312 5.8047-0.2432 0.8296-0.5169 1.6702-0.7988 2.5118 0.4129 0.6351 0.8247 1.2707 1.2285 1.9121 4.0094-0.05 6.864 0.5581 5.7715 3.5078-0.4965 1.3405-1.0064 2.5647-1.5254 3.7226 1.8167 3.3508 3.4552 6.7827 4.8379 10.297 7.6646 3.0244 14.173 7.0556 16.941 14.346 2.7637 7.2789-6.1975 12.183-15.639 15.664-0.7724 4.8752-4.7989 5.1185-10.041 3.3105-0.3096 0.096-0.6213 0.1943-0.9199 0.2871 0.2256 0.3803 0.4212 0.7025 0.6504 1.0899-3.1793 1.0608-6.3326 2.2225-9.4785 3.4082-3.3706 6.154-7.0644 12.234-9.752 18.547-9.0799-2.5178-17.09-5.2931-24.457-8.418-1.5087 0.2799-3.0198 0.5456-4.5312 0.8105-7.7144 8.1154-17.971 14.67-31.061 18.943-8.2584 2.6965-16.822 2.1728-25.496 0.4902-0.3151 0.7316-0.74 1.4939-1.2598 2.2832 4.9252 15.582 12.322 32.462 0.6407 39.332-29.707 17.473-68.837 5.392-103.29 4.6054-9.6976-0.2213-23.154-0.6934-38.932-1.3457-1.0575 0.7683-2.2916 1.3318-3.7227 1.6485-76.547 16.937-156.71-5.1783-235.07-7.7676-45.728-2.3888-84.837-4.1999-118.9-5.6426 69.59 28.909 142.75 55.579 223.86 82.334 60.538 19.969 124.35 28.115 186.53 42.172 47.04 10.635 36.2 58.267-10.811 47.502-64.487-14.767-130.66-23.498-193.46-44.301-113.97-37.752-209.22-73.921-300.15-115.6-42.946 23.44-96.293 21.448-145 28.045-133.42 18.073-114.5 16.775-206.42 0.082 24.513-14.39 44.602-26.504 61.631-36.879-11.797-1.8027-26.381-5.3389-52.232-10.924 20.969 0.7952 41.968 2.7009 62.961 4.3672 12.876-7.8811 24.191-14.842 33.713-20.609-7.4806-0.2999-14.945-0.3877-22.391-0.2149-15.123 1.0676-30.348 3.0523-45.551 4.7891-1.4097 0.2786-2.8189 0.5635-4.2266 0.8691-0.6427-0.064-1.2879-0.1178-1.9316-0.1777-25.421 2.75-50.725 4.301-75.312-0.9395-4.7017 0.2863-9.3979 0.514-14.086 0.6543-11.997 2.9985-26.623 4.2499-31.074 3.0313-14.431 3.829-45.83 10.259-39.461-1.291 1.5935-2.8897 3.3707-5.6703 5.2812-8.3711-6.976-3.7523-13.934-11.334-18.268-19.303-28.348-22.806 14.319-49.776 34.912-60.615-44.018 9.8702-84.768 12.376-112.76-12.418-9.5166-8.4305-4.9469-24.411 3.9863-37.682-2.1695-4.8366-1.7497-8.8458 3.043-10.525 2.6255-0.9201 5.2658-1.6912 7.918-2.332 2.2834-2.1001 4.6028-3.9247 6.8711-5.3555 14.246-8.9865 31.119-11.112 48.445-11.98 0.1574-0.3484 0.3135-0.6974 0.4785-1.039-0.1153-0.041-0.2539-0.082-0.3672-0.1231-10.301-3.7249-17.286-11.698-22.932-21.389-6.9745 0.3735-13.949 0.7543-20.924 1.1192 5.768-2.3076 11.411-5.3084 17.035-8.4141-6.5735-13.352-11.71-28.546-19.58-40.236 38.245-2 76.48-4.1949 114.73-6 10.001-0.4719 20.005-0.8622 30.012-1.2285 1.0931-10.643 9.1572-17.933 20.115-17.914 8.3839 0.014 18.452 4.3024 28.367 14.631 0.4901 0.5104 0.9663 1.0379 1.4512 1.5547 25.211-0.8944 50.412-1.959 75.568-3.795 3.3916-0.2475 6.7801-0.5353 10.166-0.8437 11.586-9.8804 30.981-5.1292 46.48-5.8633 1.1924-0.056 2.293-0.089 3.4668-0.1406 11.692-1.6017 23.381-3.2281 35.084-4.6973 20.82-2.6137 43.102-15.33 63.014-12.168 4.1717-0.7922 7.9606-0.3047 10.994 2.7109 2.7486 2.7323 5.0059 6.34 6.6934 10.383 0.9379 2.0942 1.7569 4.3937 2.4356 6.8379 21.463 1.9435 44.485 4.4043 72.879 6.9707 1.4775 0.3031 3.74 0.8041 6.4355 1.4043 4.4634-2.0709 9.2143-4.2101 14.357-6.4395 7.9072-3.4274 140.53-13.028 159.67-14.496 6.4949-0.2467 18.896-7.213 19.484-0.7402 0.9828 10.804 1.2722 19.575 0.8769 26.816 31.78 1.1052 50.205 0.1759 62.77 0.2383 6.7873-2.7832 14.399-4.5665 20.844-6.0605 67.033-15.541 167.63-11.262 231.98 7.6679-0.5838-6.8568 0.4694-14.157 2.4746-28.041-3.3471-8.0046-6.2054-16.161-8.0175-24.644-1.1028-5.1629 4.7031 1.4343 10.365 7.7851 1.4358-10.697 3.0671-23.812 4.8281-41.135zm-941.22 327.16c0.6795-0.1803 1.3666-0.3608 1.9649-0.5274 1.6329-0.4546 2.9933-1.2862 4.1445-2.4023-0.1123-0.095-0.223-0.1936-0.332-0.2949-1.299-0.065-2.5974-0.1385-3.8946-0.2227-3.7769 1.748-3.9784 2.8736-1.8828 3.4473zm6.1094-2.9297c3.7375 3.1615 9.2945 2.8608 16.193 0.051-5.32 0.031-10.628-0.065-15.922-0.3164-0.088 0.092-0.1806 0.1774-0.2715 0.2656zm16.193 0.051c2.9205-0.017 5.8443-0.065 8.7714-0.1524 2.6791-0.6696 5.2153-1.4266 7.4844-2.2617-0.3368-0.097-0.6746-0.1963-1.0137-0.2988-2.9052-0.1373-5.8076-0.2866-8.6992-0.4824-2.2854 1.259-4.483 2.3562-6.5429 3.1953zm138.56 15.476c-3.5513 2.1738-6.8618 4.2008-10.728 6.5567 19.047 2.9106 31.024 1.2652 71.004-3.6348-20.064 0.045-40.166-1.3257-60.275-2.9219zm862.82-269.79c-0.1783 0.02-0.3663 0.2423-0.5586 0.7129-2.7762 6.7957-4.9964 14.25-5.0879 21.609 2.5034-2.9633 4.8061-6.032 6.2774-9.4688 1.4003-3.2711 0.6173-12.995-0.6309-12.854zm-936.34 110.87c0.017 0.2076 0.031 0.4014 0.047 0.6015 0.057 0.3216 0.112 0.6454 0.1719 0.9649 3.7284-0.088 7.2722-0.1738 10.746-0.2539-3.698-0.4358-7.3305-0.8745-10.965-1.3125z" fill="#fff" fill-rule="evenodd"/></g><g transform="scale(1.4164)"><path d="m15806 14058c-44.4 4.4-86.7 8.9-133.3 13.4-126.8 13.3-240.2-26.8-333.6-115.7-91.2-86.7-135.7-200.1-129-326.9 11.1-213.5 22.2-409.2 33.3-589.3 9-151.2 4.5-867.3 135.7-916.1 255.7-95.7 393.6 164.5 442.5 318 106.8 331.2 478.1 1147.4 295.7 1427.6-73.3 111.1-180.1 175.6-311.3 189" fill="#18327e" fill-rule="evenodd"/></g><g transform="scale(1.4156)"><path d="m15880 13904c420.5-102.3-28.9-1067.9-100.1-1341.6-37.9-146.8-129.1-264.8-213.7-304.9 35.7 51.2 66.8 115.8 84.6 187 71.2 271.4 520.7 1239.3 100.1 1339.4-44.4 4.4-88.9 8.9-133.4 13.3-75.7 8.9-146.9-6.6-211.5-40.1 15.7 20.1 31.3 40.1 51.2 60.1 82.4 75.7 180.3 109.1 289.3 98 44.5-4.5 89-9 133.5-11.2" fill="#fff" fill-rule="evenodd"/></g><g transform="scale(1.5957)"><path d="m15021 15285v21.7c2 148.1 69.1 284.2 179.6 382.9 106.7 98.7 256.7 163.9 422.5 171.8h27.6c173.7 2 335.6-59.2 452-159.9 118.4-100.7 193.4-242.7 197.4-398.7v-21.8c-4-148-71.1-284.2-179.6-382.9-108.6-98.6-258.6-163.8-424.4-171.7h-25.6c-98.8 0-191.6 17.8-276.4 51.3-77-114.5-171.8-209.2-274.4-286.2-136.2-102.6-284.2-177.6-416.5-228.9v-31.6c0-3.9-2-11.8-2-21.7-5.9-82.9-31.5-159.9-71.1-231-33.5-59.2-78.9-114.5-132.1-159.8 88.8-242.8 136.1-509.3 126.3-791.6-15.8-540.8-231-1030.3-562.6-1385.6-702.7-748.1-1835.6-799.4-2536.3 0-311.9 355.3-495.5 844.8-477.7 1385.6v43.5c-65.2 37.4-122.4 84.8-171.8 140.1-80.9 94.8-138.1 215.1-159.8 349.4-9.9 41.4-15.8 84.8-13.9 130.3h-1.9c0 1.9 1.9 7.9 1.9 17.7 2 25.6 6 49.3 9.9 73 23.7 183.6 108.6 351.4 233 473.8 134.1 136.1 313.8 219.1 505.3 219.1h23.7c59.2-2 114.4-11.9 167.7-29.7 23.7 23.7 49.3 47.4 73 69.2 9.9 9.8 17.8 17.7 27.7 25.6 548.7-86.9 1131-236.8 2112 138.1 43.4 17.8 86.9 35.6 128.3 53.4 57.3 15.7 116.4 25.6 177.6 25.6h23.7c150-5.9 282.3-67.1 375.1-159.9 35.5-35.5 63.1-74.9 86.8-118.4 106.6 43.5 223 104.6 327.6 183.6 86.9 65.1 165.8 144.1 227 238.8-108.5 98.7-177.6 234.9-179.6 384.9" fill="#18327e"/></g><g transform="scale(1.4146)"><path d="m15481 15182c-26.7 140.4-97.9 298.4-144.7 425.4-572.2 24.4-990.7 109.1-1298 218.1-389.6 138.1-603.4 318.4-719.2 474.3l-15.5-15.6-46.8-44.6c73.5-40 140.3-95.7 196-158 124.6-144.7 198.1-340.7 191.4-558.8l-2.3-33.5c-15.5-229.3-115.7-436.3-264.8-585.6-82.5-82.3-180.4-149.1-287.2-191.4 0 0-133.6-46.7-498.8-24.5-2.2-26.7-2.2-53.4-2.2-77.9v-2.2c2.2-46.8 2.2-93.5 6.6-138.1 60.1-15.5 431.9-82.3 494.4-95.7 207-33.4 414.1-55.7 623.3-73.5 378.6-28.9 759.2-33.4 1137.8-13.4 84.6 291.7 305 480.9 514.3 594.5 64.5 82.4 84.6 200.4 115.7 300.5" fill="#fff" fill-rule="evenodd"/></g><g transform="scale(1.3939)"><path d="m13478 15209c128.8 131.1 216.9 314.1 230.5 515.2l2.2 29.4c4.6 189.7-56.4 361.5-164.9 483.5-18.1 22.6-38.4 42.9-61 63.2-90.3-4.5-176.2-24.8-255.3-61-67.8-31.6-131-74.5-183.1-124.2 18.2-18.1 36.2-38.4 49.8-58.8 67.8-92.6 106.2-216.9 101.7-343.5l-2.3-24.8c-9.1-142.3-76.8-282.4-189.8-379.6 40.6-45.2 90.4-83.5 144.6-115.2 65.6-38.4 137.9-63.3 212.4-76.9 40.7 27.2 79.1 58.8 115.2 92.7" fill="#fff" fill-rule="evenodd"/></g><g transform="scale(1.3029)"><path d="m13440 16256c111.2-123.3 265.9-200.6 442.4-207.9h21.7c72.6 0 140.2 12.1 205.5 31.4-41.1 16.9-79.8 36.3-118.5 55.7-74.9 43.4-142.6 99.1-198.1 164.3-67.7-33.8-140.3-50.7-217.6-50.7h-14.5c-38.7 2.3-74.9 7.2-111.2 16.9l-9.7-9.7" fill="#fff" fill-rule="evenodd"/></g><g transform="scale(1.3105)"><path d="m13608 15476c60.1-468.7 250-889.3 533.6-1211.4 93.7-108.1 199.5-206.6 314.8-290.8l-9.6 9.6c103.3-81.7 245.2-149 430.3-245.1 209-84.1 435-129.8 670.5-129.8 110.5 38.5 271.6 161 423 302.8 129.8 122.6 252.4 259.6 329.3 367.8-314.9 98.5-403.8 504.7-312.5 971l7.2 38.4c-302.8-16.8-605.7-16.8-908.5-2.4-98.5 4.8-199.4 9.6-297.9 16.8-427.9 33.7-766.8 81.7-1180.2 173.1" fill="#fff" fill-rule="evenodd"/></g><g transform="scale(1.4193)"><path d="m15137 13087c-77.6-102.1-184.2-222-299.6-328.4-66.5-62.2-135.4-122.2-201.9-170.9 410.6 64.3 783.4 275.1 1071.9 583.6 328.4 350.6 550.3 827.8 592.5 1358.1-17.8-13.2-37.8-24.4-57.7-37.7-40-24.4-84.3-48.8-131-71 17.8-111 17.8-233-8.9-363.9-88.7-455-443.8-832.3-816.6-885.5-46.6-31-102.1-59.9-148.7-84.3" fill="#fff" fill-rule="evenodd"/></g><g transform="scale(1.4202)"><path d="m15694 14918c177.5-53.2 310.5-192.9 374.9-383.7 33.2 15.6 64.3 33.3 93.1 51 48.9 31.1 95.3 62.2 133.1 95.4 4.4 374.8-79.8 725.2-235.1 1024.6-102 201.8-237.3 381.4-394.8 532.2 35.6-339.3-177.3-569.9-266.1-649.8 57.7-150.8 99.8-312.7 128.7-479 42.1-70.9 97.6-133 166.2-190.7" fill="#fff" fill-rule="evenodd"/></g><g transform="scale(1.4278)"><path d="m15777 16139c123.5-136.8 231.6-291.1 317.6-461.1 19.9-35.2 37.5-72.7 52.9-108 33.1 33.1 61.8 68.4 83.9 110.3 35.3 61.8 59.6 132.4 64 205.1v19.9c4.4 125.7-42 238.2-125.8 322.1-13.2 15.4-28.6 28.6-46.3 41.8-70.6-2.1-139-17.6-198.6-41.8-55.1-22.1-105.9-53-147.7-88.3zm454.4-458.8" fill="#fff" fill-rule="evenodd"/></g><g transform="scale(1.4338)"><path d="m15623 16162c54.9 46.1 116.5 83.4 186.8 109.8 15.3 6.6 30.7 13.2 48.2 17.6-28.5 6.6-57 8.8-85.6 11h-19.8c-54.9 0-109.8-8.8-160.4-24.2-24.1-6.6-46.2-15.3-68.1-24.1 33-28.6 66-59.3 98.9-90.1" fill="#fff" fill-rule="evenodd"/></g><g transform="scale(1.4061)"><path d="m12826 16049c67.1 67.2 145.6 121 235.2 161.3 42.5 20.2 89.5 38 138.9 49.3-60.5 24.7-123.3 38-192.7 40.3h-20.2c-179.1 0-347.2-78.4-474.8-206.1l-24.7-26.9 9-6.7 9-8.9c51.5 20.1 107.5 31.3 163.5 31.3h11.1c53.8-2.2 103.1-13.4 145.7-33.6zm-329.3 11.2" fill="#fff" fill-rule="evenodd"/></g><g transform="scale(1.5839)"><path d="m15248 15405c1.9-127.2 63.6-242.7 161.1-324.2 97.4-83.5 230.6-135.2 375.7-133.2h22c137.2 8 260.4 59.7 348 139.2 87.5 81.5 141.1 188.9 145.1 308.2v16c-4 109.3-49.7 210.7-125.3 290.3-25.8-37.8-65.6-69.6-113.3-91.5-77.6-39.8-179-57.7-278.4-49.7-99.5 7.9-184.9 43.7-248.6 93.4-41.7 31.9-73.5 71.6-91.4 115.3-17.9-11.8-35.8-25.8-51.8-39.7-87.4-79.5-141.2-189-143.1-308.2v-15.9" fill="#fff" fill-rule="evenodd"/></g><g transform="scale(1.3532)"><path d="m15350 13202c351.5 55.8 677.4 214.1 949.6 446.9-207.1-158.3-414.2-260.8-600.4-274.7-37.3-4.7-32.6 81.5 41.9 190.9-93.2-100.1-281.7-284-391.1-363.1" fill="#cfcfcf" fill-rule="evenodd"/></g><g transform="scale(1.4202)"><path d="m15668 16120c161.9-184.1 483.4-634.3 554.4-1386.1 4.4-33.3 6.6-68.8 8.9-104.3 22.2 17.9 44.3 35.5 64.3 51.1 4.4 374.8-79.8 725.2-235.1 1024.6-102 201.8-237.3 381.4-394.8 532.2 4.5-39.9 4.5-79.9 2.3-117.5" fill="#fff" fill-rule="evenodd"/></g><g transform="scale(1.4193)"><path d="m16242 14491s-79.9-594.7-195.2-841c137.5 264 226.2 561.4 252.9 878.7-17.8-13.2-37.8-24.4-57.7-37.7" fill="#fff" fill-rule="evenodd"/></g><g transform="scale(1.5323)"><path d="m16058 16181c-43.2 32.9-76 74-94.5 119.2-18.5-12.3-37-26.7-53.5-41.1-90.4-82.2-146-195.3-148-318.6v-16.4c2-131.5 65.8-250.8 166.5-335.1 30.9-26.7 65.8-51.3 104.9-71.9-326.8 472.8 28.7 659.8 24.6 663.9" fill="#cfcfcf" fill-rule="evenodd"/></g><g transform="scale(1.5839)"><path d="m16175 15702c-15.8-23.9-39.7-45.7-65.6-63.7 81.5-103.4 139.3-270.4 61.7-534.9 77.6 77.6 127.2 181 129.2 292.3v16c-4 109.3-49.7 210.7-125.3 290.3" fill="#fff" fill-rule="evenodd"/></g><g transform="scale(1.4224)"><path d="m15837 16200c154.9-170.5 281.2-365.4 372-571.3 55.4 55.3 64.2 66.4 90.8 137.3-82 172.7-312.3 440.7-405.2 476.1-24.4-6.7-44.3-28.8-57.6-42.1" fill="#cfcfcf" fill-rule="evenodd"/></g><g transform="scale(1.4306)"><path d="m15714 16238c-85.9 50.6-99.1 59.4-123.3 61.6-24.3-6.6-11.1-4.3-33-13.1 33-28.6 66-59.5 99-90.3 28.7 22 30.8 24.2 57.3 41.8" fill="#cfcfcf" fill-rule="evenodd"/></g><g transform="scale(1.3557)"><path d="m16040 15789c-7-248.6-529.7-355.4-618-817.7-283.5-58.1-1249.9-37.3-1249.9-37.3 443.7-41.7 880.5-48.7 1324.2-25.5 62.7 260.2 295.1 490.2 536.7 620.4 86 51 130.1 183.5 120.8 313.5-27.9 146.4-102.3 311.4-151 443.9-32.5 2.2-202.1 11.5-232.3 13.9 227.6-79.1 278.8-248.7 269.5-511.2" fill="#fff" fill-rule="evenodd"/></g><g transform="scale(1.4061)"><path d="m12987 16300c-26.9 0-56-2.3-82.8-6.7 80.6 0 147.8-29.1 192.6-67.3 38.1 15.8 62.7 24.7 103.1 33.7-60.5 24.7-123.3 38-192.7 40.3h-20.2" fill="#fff" fill-rule="evenodd"/></g><g transform="scale(1.3939)"><path d="m13342 16280c366.1-259.8 289.3-919.6-128.7-1118.4 47.4-20.4 97.2-36.2 149.1-45.3 40.7 27.2 79.1 58.8 115.2 92.7 128.8 131.1 216.9 314.1 230.5 515.2l2.2 29.4c4.6 189.7-56.4 361.5-164.9 483.5-18.1 22.6-38.4 42.9-61 63.2-49.7-2.2-97.2-9-142.4-20.3" fill="#cfcfcf" fill-rule="evenodd"/></g><g transform="scale(1.2912)"><path d="m14119 16283c-9.8 7.2-17.1 12.1-26.8 17-61.1-36.6-178.1-63.5-327-46.4 73.2-34.1 156.2-56.1 244-58.5h21.9c73.3 0 141.5 12.2 207.4 31.7-41.5 17-80.5 36.6-119.5 56.2" fill="#fff" fill-rule="evenodd"/></g><g transform="scale(1.7381)"><path d="m11451 12977c-57.9-7.3-115.9-10.9-172.1-12.7-299-10.9-585.3 48.9-837.2 170.3-88.8-3.6-179.4 18.2-264.5 58-110.6 50.8-213.89 136-297.2 246.5-29 32.6-54.43 68.8-77.9 110.5 0 1.8-3.63 7.3-7.26 16.3-10.93 21.8-19.96 45.3-27.21 67.1-50.74 115.9-76.12 233.7-77.96 346.1-123.18 373.3-83.31 779.2 90.62 1143.4 170.36 360.7 471.11 681.4 875.31 891.6 445.7 231.9 933.2 286.3 1359.1 186.7 431.2-101.5 802.7-358.9 1009.3-750.3 208.4-391.4 213.8-840.8 52.5-1250.3-328-625.2-454.7-933.3-1625.5-1223.2" fill="#18327e"/></g><g transform="scale(1.5128)"><path d="m14380 15917c-326.9-170.8-687.1-206.2-1005.7-125-295.6 75-553.8 247.8-718.2 508-31.3-14.5-62.5-29.1-95.8-43.7l-91.6-39.5c95.7-206.1 118.6-422.7 81.1-612.1-29.1-149.9-97.8-281.1-201.8-374.8 77-43.7 156.1-83.3 239.3-114.5 672.6-264.5 1474.1 154 1900.9 601.7 4.2 60.4 6.2 120.8 6.2 179 0 29.2 0 56.3-2 85.4-35.4-22.9-72.9-43.7-112.4-64.5" fill="#fff" fill-rule="evenodd"/></g><g transform="scale(1.5423)"><path d="m12195 15342c32.7 165.4 8.2 359.4-79.7 541.2l-14.2 26.5c-89.9 167.5-220.6 294.1-361.5 359.4-26.6 12.3-51.1 22.5-77.6 30.7-65.4-38.8-120.5-91.9-161.3-153.1-34.7-53.1-61.3-114.5-75.6-179.8 22.5-8.2 45-18.4 67.4-32.6 96-55.2 183.8-147.1 245.1-261.5l10.2-20.4c61.2-124.5 75.5-255.3 53.1-369.6-2-12.3-4.1-26.5-8.2-38.8 53.1-22.5 110.3-38.8 167.5-44.9 65.3-6.2 132.7-2.1 196 16.3 16.3 40.9 30.6 81.7 38.8 126.6" fill="#fff" fill-rule="evenodd"/></g><g transform="scale(1.4322)"><path d="m12878 16236c-79.1 8.7-156.1 30.7-230.9 63.7-35.2-55-81.3-99-138.6-127.6l-13.1-6.5c-28.5-13.2-59.4-24.3-90.2-28.7l-2.2-13.2c145.2-65.9 301.3-72.5 437.7-8.8l15.3 8.8c55 28.7 101.2 63.8 138.6 107.8-37.4-2.2-77 0-116.6 4.5" fill="#fff" fill-rule="evenodd"/></g><g transform="scale(1.5445)"><path d="m11292 15968c18.4 85.6 49 165.2 95.9 234.6 24.4 36.6 50.9 69.2 81.5 97.8-57.1-2-112.1-14.2-165.1-40.8l-14.3-6.1c-136.7-71.4-224.4-208-257-369.1l-4-32.6 8.1-4.1 12.3-4.1c28.5 38.7 65.2 71.4 106 91.8l10.2 6c40.8 18.4 83.6 26.6 126.4 26.6zm-254.9-120.3" fill="#fff" fill-rule="evenodd"/></g><g transform="scale(1.5802)"><path d="m10781 15822c-29.9 157.5-37.9 318.9-25.9 478.4-59.8-207.3-77.8-420.6-51.9-629.9 20 55.9 45.8 105.7 77.8 151.5" fill="#ffa032" fill-rule="evenodd"/></g><g transform="scale(1.7145)"><path d="m10019 15012c-9.2-110.3-7.3-220.5 7.3-330.7 27.6 22 57 44.1 90.1 60.6l16.5 7.4c145.2 67.9 310.5 58.8 463-12.9 135.9-62.4 260.8-176.4 352.7-327 29.4 12.8 56.9 23.9 86.3 36.8l77.2 34.8c-123.2 257.3-125 543.8-29.4 804.7 86.3 233.3 251.6 444.5 481.3 595.2 42.2 143.3 58.8 282.9-270.1 418.8-148.8-36.7-295.8-93.7-440.9-167.2-457.4-238.7-791.7-552.9-834-1120.5" fill="#fff" fill-rule="evenodd"/></g><g transform="scale(1.7215)"><path d="m11596 16289c75-142.8 239.7-259.9 415.3-278.2 172 29.3 344 22 503.2-18.3 111.6-27.4 217.7-73.2 312.8-131.7-190.2 190.3-437.3 322-711.7 386.1-166.5 38.4-342.1 53-519.6 42.1" fill="#e6e6e6" fill-rule="evenodd"/></g><g transform="scale(1.5226)"><path d="m14827 16300c-82.7-126.2-188.3-242-312.3-341.3 4.1-57.9 4.1-117.9 4.1-177.9v-22.8c126.2 157.3 225.5 328.9 293.8 506.9l14.4 35.1" fill="#e6e6e6" fill-rule="evenodd"/></g><g transform="scale(1.5445)"><path d="m11290 16253c-93.9-48.9-163.1-128.4-208-224.3 75.4 93.8 224.3 205.9 316 187.6 34.7 40.8 28.6 42.8 71.4 83.6-57.1-2-112.1-14.2-165.1-40.8l-14.3-6.1" fill="#cfcfcf" fill-rule="evenodd"/></g><g transform="scale(1.5423)"><path d="m12061 15199c32.7 2 63.3 8.1 96 16.3 16.3 40.9 30.6 81.7 38.8 126.6 32.7 165.4 8.2 359.4-79.7 541.2l-14.2 26.5c-89.9 167.5-220.6 294.1-361.5 359.4-26.6 12.3-51.1 22.5-77.6 30.7-44.9-26.6-55.2-30.7-87.8-67.4 287.9-16.4 684.1-498.3 486-1033.3" fill="#cfcfcf" fill-rule="evenodd"/></g><g transform="scale(1.4264)"><path d="m12939 16300c-119.2-103.8-280.4-134.7-397.4-143.5 119.2-33.2 240.7-26.5 351.1 24.2l15.4 8.9c55.2 28.7 101.6 64 139.1 108.2-35.3-2.2-72.9 0-108.2 2.2" fill="#cfcfcf" fill-rule="evenodd"/></g><g transform="scale(1.4728)"><path d="m14888 16300c-483.3-498.2-1571.8-857.6-2020.9-363.5-38.5-115.5-100.4-216-183.8-293 744.1-474.8 1680.8-42.9 2198.3 500.4 4.3 53.4 6.4 104.8 6.4 156.1" fill="#e6e6e6" fill-rule="evenodd"/></g><g transform="scale(1.5213)"><path d="m11196 16093 8.3-4.1 12.5-4.1c28.9 39.3 66.2 72.4 107.6 93.1l10.3 6.2c41.5 18.6 85 26.9 128.4 26.9 6.2 24.9 12.4 49.7 18.6 72.5-91 16.6-258.8-74.6-285.7-190.5" fill="#fff" fill-rule="evenodd"/></g><g transform="scale(1.5155)"><path d="m11697 16217c220.2-124.8 363.7-415.8 313.8-663-2-12.5-4.1-27.1-8.3-39.5 31.1-12.5 64.4-25 97.7-33.3 110.1 305.5-199.5 764.8-459.3 818.9-12.5-31.2-4.2-16.6-12.5-49.9 22.9-8.4 45.8-18.7 68.6-33.2" fill="#fff" fill-rule="evenodd"/></g><g transform="scale(1.4322)"><path d="m12647 16300c-35.2-55-81.3-99-138.6-127.6l-13.1-6.5c-28.5-13.2-59.4-24.3-90.2-28.7l-2.2-13.2c2.2-2.2 4.4-4.4 8.8-4.4 118.8 8.8 255.1 22 334.3 143-33 11-66 22-99 37.4" fill="#fff" fill-rule="evenodd"/></g><g transform="scale(1.7184)"><path d="m10277 14762c-474.72 538.8 542.5 1537.7 1141.9 1422.2-42.2 33-55 34.9-150.3 78.8-641.5-130-1440.6-703.8-1264.7-1614.7 93.5 86.1 223.6 106.3 273.1 113.7" fill="#fff" fill-rule="evenodd"/></g><g transform="scale(1.5802)"><path d="m10781 15822c-29.9 157.5-37.9 318.9-25.9 478.4-59.8-207.3-77.8-420.6-51.9-629.9 20 55.9 45.8 105.7 77.8 151.5" fill="#fff" fill-rule="evenodd"/></g><g transform="scale(1.7215)"><path d="m11658 16203c215.9 14.7 695.3-1.8 1169.1-342.1-190.2 190.3-437.3 322-711.7 386.1-166.5 38.4-342.1 53-519.6 42.1 16.5-31.2 36.6-58.6 62.2-86.1" fill="#fff" fill-rule="evenodd"/></g><g transform="scale(1.6422)"><path d="m12119 15767c69.1 36.4 165-13.4 216.8-109.3 49.8-95.9 36.4-203.2-32.6-239.8-67.2-34.4-165 13.5-214.8 111.3-51.8 95.9-38.4 203.3 30.6 237.8zm1081.7 502.5c57.5 30.7 140.1-11.5 182.2-93.9 44.1-80.6 32.6-170.7-24.9-201.4s-140.1 11.5-184.1 93.9c-42.3 80.6-30.7 170.8 26.8 201.4" fill="#fff" fill-rule="evenodd"/></g><g transform="scale(1.3543)"><path d="m11886 15121c204.6 0 388.4-81.4 520.9-213.9 134.8-134.9 216.3-318.6 216.3-520.9 0-204.7-81.5-388.4-216.3-521-132.5-132.6-316.3-216.3-520.9-216.3-202.4 0-386.1 83.7-518.6 216.3-134.9 132.6-216.3 316.3-216.3 521 0 202.3 81.4 386 216.3 520.9 55.8 55.7 120.8 102.3 193 139.5 167.4 555.8 627.9 811.6 1176.7 1116.2 83.7 46.6 169.8 95.4 244.2 137.3l132.5-227.9c-92.9-53.5-172-97.7-248.8-139.6-430.3-239.4-800-444.2-983.7-811.6h4.7" fill="#18327e"/></g><g transform="scale(1.2367)"><path d="m13012 16300c315.8 0 570.5-254.6 570.5-570.6 0-55.9-7.7-112-23-162.9-104.3 25.5-219 40.7-336.1 40.7-275.1 0-519.6-76.4-685.2-196-61.1 91.7-96.7 201.1-96.7 318.2 0 316 254.7 570.6 570.5 570.6" fill="#fff" fill-rule="evenodd"/></g><g transform="scale(1.3831)"><path d="m13388 15048s-136.6-47.7-510.1-25c-2.3-75.2 0-150.3 4.5-223.2 25.1-6.8 52.5-13.6 79.8-18.2l-2.3 2.3c63.7-13.6 327.9-63.8 407.6-77.4-116.1 170.8 430.4 257.3 642.2 728.6 134.3 305.2 111.5 624 36.4 854-63.8 2.3-125.2 4.5-186.7 11.4 66-123 100.2-268.7 95.6-423.5l-2.3-34.2c-15.9-234.6-118.4-446.3-270.9-599-84.3-84.2-184.5-152.5-293.8-195.8" fill="#cfcfcf" fill-rule="evenodd"/></g><g transform="scale(1.2214)"><path d="m12816 15679c-128.9 152.1-162.5 368.7-82.6 621.4-85-100.5-136.5-232-136.5-373.9 0-118.6 36-229.4 97.9-322.3 36.1 28.4 77.4 51.6 121.2 74.8" fill="#cfcfcf" fill-rule="evenodd"/></g><g transform="scale(1.2347)"><path d="m13201 16300c219.4-127.6 321.4-426 214.3-678.5 56.1-7.7 112.2-17.8 165.8-30.6 15.3 51 23 107.1 23 163.1 0 257.8-168.4 474.6-403.1 546" fill="#fff" fill-rule="evenodd"/></g><g transform="scale(1.2761)"><path d="m14513 15792c-172.8 27.1-348 59.2-538 101.1 61.7-481.3 256.6-913.2 547.9-1243.9 96.2-111.1 204.9-212.2 323.3-298.7l-9.8 9.9c106.1-83.9 251.8-153.1 441.8-251.8 214.7-86.4 446.8-133.2 688.6-133.2 88.9 29.6 209.9 113.5 333.2 219.6-1490.8 204.9-1727.7 1211.9-1787 1597" fill="#cfcfcf" fill-rule="evenodd"/></g><g transform="scale(1.2195)"><path d="m15768 15784c49-13 98-26 149.7-38.8 142.1-38.7 250.5-129.2 315.1-260.9 64.6-134.3 67.2-273.7 7.7-410.7-98-227.3-191-436.5-273.7-627.5-69.7-160.3-356.4-942.8-519.1-942.8-317.7 0-361.6 338.3-353.9 526.9 18.1 402.9-54.2 1443.9 258.3 1673.6 124 90.5 268.6 118.9 415.9 80.2" fill="#18327e" fill-rule="evenodd"/></g><g transform="scale(1.2056)"><path d="m15456 13904c75.8-104.4 180.3-117.6 253.5 47.1 114.8 266.5 229.9 530.4 344.8 794.2 91.5 211.6 99.3 227.2 193.3 438.9 52.3 120.2 49.6 240.4-7.8 357.9-44.4 91.4-109.8 156.8-193.3 198.5 34-33.9 60-73 83.5-120.1 57.6-117.5 60.2-240.3 7.9-358-94-211.6-101.9-229.8-193.3-441.5-114.9-263.8-229.9-527.7-344.9-791.5-41.8-94.1-94-130.7-143.7-125.5" fill="#fff" fill-rule="evenodd"/></g><g transform="scale(1.6954)"><path d="m14758 16006c161.6 0 289.8-130.1 289.8-289.8 0-159.8-128.2-289.8-289.8-289.8-159.8 0-288 130-288 289.8 0 159.7 128.2 289.8 288 289.8zm163.4 146.7c11.2-3.6 20.5-7.3 31.6-11 18.6-9.4 39-7.5 55.7 3.7l46.5 33.4c22.3 16.7 52 13 72.4-5.6l42.8-44.6 44.6-44.6c18.6-18.5 22.3-48.3 5.5-72.4l-31.5-44.7c-13-16.6-14.9-37.1-5.6-57.5 3.7-9.3 7.5-18.6 13-29.7 5.6-18.6 22.3-31.6 42.8-35.3l55.7-9.3c26-5.6 46.4-27.9 46.4-55.7v-124.5c0-27.9-20.4-50.2-46.4-55.7l-55.7-9.3c-20.5-3.8-37.2-16.8-42.8-35.4-5.5-11.1-9.3-20.4-13-31.5-9.3-18.6-7.4-39 5.6-55.8l31.5-46.4c16.8-22.3 13.1-52-5.5-72.5l-44.6-42.7-42.8-44.6c-20.4-20.4-50.1-22.3-72.4-5.5l-46.5 31.5c-16.7 13.1-37.1 14.9-55.7 5.6-11.1-3.7-20.4-9.3-31.6-13-18.5-7.4-31.5-22.3-35.2-42.8l-9.3-55.6c-5.6-27.9-27.9-46.5-55.7-46.5h-124.5c-27.9 0-50.2 18.6-55.7 46.5l-9.3 55.6c-3.8 20.5-16.7 35.4-35.4 42.8-11.1 3.7-20.4 9.3-31.5 13-18.6 9.3-39.1 7.5-55.8-5.6l-46.4-31.5c-22.3-16.8-52-14.9-72.5 5.5l-42.7 44.6-44.6 42.7c-18.6 20.5-22.2 50.2-5.5 72.5l31.6 46.4c13 16.8 14.8 37.2 5.5 55.8-3.7 11.1-9.2 20.4-13 31.5-7.4 18.6-22.3 31.6-42.7 35.4l-55.7 9.3c-27.9 5.5-46.5 27.8-46.5 55.7v124.5c0 27.8 18.6 50.1 46.5 55.7l55.7 9.3c20.4 3.7 35.3 16.7 42.7 35.3 3.8 11.1 9.3 20.4 13 29.7 9.3 20.4 7.5 40.9-5.5 57.5l-31.6 44.7c-16.7 24.1-13.1 53.9 5.5 72.4l44.6 44.6 42.7 44.6c20.5 18.6 50.2 22.3 72.5 5.6l46.4-33.4c16.7-11.2 37.2-13.1 55.8-3.7 11.1 3.7 20.4 7.4 31.5 11 18.7 7.5 31.6 24.2 35.4 44.6l9.3 55.8c5.5 26 27.8 46.4 55.7 46.4h124.5c27.8 0 50.1-20.4 55.7-46.4l9.3-55.8c3.7-20.4 16.7-37.1 35.2-44.6" fill="#18327e" fill-rule="evenodd"/></g><g transform="scale(1.7141)"><path d="m15315 16188c9.2-3.7 16.6-7.4 23.9-11 14.7-5.5 31.3-5.5 44.1 3.6l34.9 25.7c18.4 12.9 42.3 11.1 57-5.4l33-33.1 35-33.1c14.7-16.5 16.5-38.6 3.7-57l-23.9-34.9c-9.3-12.9-11.1-29.4-5.6-44.1 3.7-7.3 7.4-14.7 11-23.8 5.5-14.7 16.5-24 33.1-27.6l42.3-7.4c22.1-3.7 36.8-22 36.8-42.2v-95.6c0-22-14.7-40.3-36.8-44.1l-42.3-7.3c-16.6-1.8-27.6-12.9-33.1-27.6-3.6-7.3-7.3-16.5-11-23.8-5.5-14.8-3.7-29.5 5.6-42.3l23.9-36.8c12.8-16.5 11-40.4-3.7-55.1l-68-68c-14.7-14.7-38.6-18.4-57-5.5l-34.9 25.7c-12.8 9.2-29.4 11-44.1 3.7-7.3-3.7-14.7-7.4-23.9-9.2-14.7-5.5-23.8-18.4-27.5-33.1l-7.4-44.1c-3.7-20.2-20.1-36.7-42.3-36.7h-95.5c-3.6 0-7.3 1.9-11 1.9 42.3 7.3 71.7 42.2 71.7 84.4v123.2c0 5.5 0 12.8-2 18.4 117.7 5.4 213.3 102.8 213.3 224.1 0 123.2-101.1 224.1-224.2 224.1-71.7 0-136-34.8-176.4-88.1l-31.3 31.2c-29.4 29.4-75.3 33.1-110.2 9.2l-7.4-5.5c0 7.3-1.8 14.7-7.3 22l-25.8 34.9c-11 18.4-9.1 40.5 5.6 57l33.1 33.1 34.9 33.1c14.7 16.5 38.6 18.3 55.1 5.4l36.7-25.7c12.9-9.1 27.6-9.1 42.3-3.6 9.2 3.6 16.5 7.3 23.9 11 14.7 5.5 25.7 16.5 27.5 33.1l7.4 42.2c3.7 22 22 36.8 44.1 36.8h95.5c22.2 0 38.6-14.8 42.3-36.8l7.4-42.2c3.7-16.6 12.8-27.6 27.5-33.1" fill="#18327e" fill-rule="evenodd"/></g><g transform="scale(1.752)"><path d="m13618 16109c95.3 25.2 194.2-32.3 219.3-129.4 23.3-97.1-34.1-194.2-131.2-219.3-95.3-25.2-194.2 34.1-219.3 129.4-23.4 97.1 34.1 196 131.2 219.3zm75.5 115.1c7.1-1.8 12.6-1.8 19.8-3.6 12.6-1.8 25.1 1.8 34.2 12.6l21.5 26.9c12.6 12.7 30.6 16.2 44.9 7.2l34.2-19.8 32.3-19.7c14.4-9 21.6-27 14.4-43.2l-12.5-32.3c-3.6-12.6-1.9-25.2 5.3-36 5.5-5.4 9.1-10.8 12.6-16.1 7.2-10.8 19.8-16.3 32.4-14.4l34.1 1.7c18 1.9 34.2-8.9 37.8-25.1l9-37.8 10.8-37.7c3.6-16.2-5.4-34.2-19.8-39.5l-32.4-14.5c-12.5-5.3-19.7-16.1-21.5-28.7 0-7.2-1.8-14.4-1.8-21.6-3.6-12.6 1.8-23.4 10.8-32.3l26.9-23.4c12.7-10.8 16.2-28.8 7.2-45l-19.8-32.3-19.7-32.4c-9-16.1-27-21.6-43.2-16.1l-32.3 12.5c-12.6 5.4-25.3 3.6-34.2-5.3-5.4-3.6-10.8-7.2-16.2-12.7-10.8-7.1-16.1-17.9-16.1-30.5l3.6-36c1.7-16.2-9-32.3-27.1-36l-37.7-10.7-36-9c-17.9-3.6-34.1 3.6-41.2 19.7l-14.4 32.5c-5.5 12.5-16.3 19.7-28.8 19.7-7.2 1.8-12.6 1.8-19.8 3.6-12.6 1.8-25.2-1.8-34.2-10.8l-21.6-26.9c-10.7-14.4-30.5-16.2-44.9-7.2l-34.1 18-32.4 19.7c-14.4 9-21.5 27-14.4 43.2l12.6 34.1c3.6 10.8 1.8 23.4-5.4 34.2-5.4 5.4-9 10.8-12.6 16.2-7.2 10.7-19.7 16.1-32.3 14.3l-34.2-1.8c-18-1.8-32.4 9-37.8 25.2l-8.9 37.7-9 37.8c-5.4 16.2 3.6 34.2 19.8 41.4l30.5 14.3c12.6 5.5 19.8 14.4 21.6 27 0 7.2 1.8 14.4 3.6 21.6 1.8 12.6-3.6 25.1-12.6 32.3l-26.9 23.4c-12.7 10.8-16.2 30.6-7.2 44.9l19.7 32.4 19.8 34.1c9 14.5 27 19.8 43.1 14.5l32.4-12.6c12.6-5.4 25.2-1.9 34.2 5.4 5.3 3.6 10.8 8.9 16.1 12.5 10.8 7.2 16.2 18 16.2 30.6l-3.6 36c-1.8 17.9 10.8 32.4 27 37.7l37.7 9 36 9c18 3.6 34.1-3.6 41.3-19.8l14.4-32.4c5.5-10.7 16.2-17.9 28.8-19.7" fill="#18327e" fill-rule="evenodd"/></g><path transform="matrix(7.5 0 0 -7.5 0 4e4)" d="m2166.4 3480.4c0.017 0.2076 0.031 0.4014 0.047 0.6015 0.057 0.3216 0.112 0.6454 0.1719 0.9649 3.7284-0.088 7.2722-0.1738 10.746-0.2539-3.698-0.4358-7.3305-0.8745-10.965-1.3125z" fill="#18327e"/><g fill="#ff3e00"><path transform="matrix(7.5 0 0 -7.5 0 4e4)" d="m2481.3 3128.4c-23.102-16.181-25.868-33.453-24.414-152.44l1.3439-109.99-23.524-31.666c-49.461-66.581-78.066-146.61-83.827-234.52-3.1108-47.469-3.1502-47.585-20.919-61.865-9.7913-7.8685-23.167-24.418-29.723-36.777-6.5564-12.359-13.229-22.471-14.828-22.471-5.0361 0-64.391 39.571-86.407 57.607-21.044 17.239-49.546 53.967-49.546 63.845 0 2.8665 7.2425 5.2119 16.094 5.2119 21.424 0 63.327 21.368 79.56 40.57 34.199 40.456 43.101 100.84 21.504 145.87-23.516 49.027-77.972 80.211-131.58 75.35-35.108-3.1835-60.992-16.394-86.638-44.216-51.448-55.814-42.911-146.03 18.209-192.44 14.335-10.885 24.579-23.709 29.686-37.161 18.852-49.664 60.405-92.365 134.16-137.87l44.457-27.428 5.757-32.215c6.9596-38.943 25.998-73.786 54.578-99.886l21.261-19.416-21.923-15.051c-45.986-31.572-77.554-84.827-87.438-147.51-2.3796-15.091-7.9453-46.072-12.368-68.848-22.777-117.29 28.453-254.39 130.32-348.74 195.4-180.99 505.22-167.22 635.16 28.228 50.668 76.216 67.606 173.69 45.946 264.43-16.121 67.533-65.401 155.61-116.57 208.33-14.952 15.407-25.667 28.012-23.811 28.012 1.856 0 19.931-6.5768 40.166-14.615 64.485-25.616 118.68-17.682 155.77 22.808l16.826 18.366 27.598-13.536c25.501-12.507 84.798-62.912 84.798-72.083 0-2.1933-6.9834-13.895-15.519-26.004-12.088-17.149-15.979-28.376-17.599-50.779-2.6422-36.528 4.3805-57.551 28.305-84.73 72.273-82.106 220.35-45.8 240.33 58.925 1.6964 8.8929 0.8868 25.975-1.7992 37.961-14.959 66.75-84.721 108.69-158.29 95.153l-29.316-5.3919-36.534 35.232c-24.492 23.619-48.952 41.526-74.208 54.328-24.78 12.56-37.674 21.938-37.674 27.4 0 15.487-14.94 50.862-28.76 68.095l-13.758 17.157 11.86 46.175c10.747 41.84 11.651 53.264 9.6351 121.69-2.4271 82.366-9.3152 114.39-37.597 174.8-8.3045 17.738-19.239 49.994-24.299 71.68-16.45 70.499-63.337 195.22-81.265 216.16-17.746 20.732-36.752 27.54-56.221 20.138-13.156-5.002-18.657-22.033-25.848-80.028-2.4331-19.624-4.2716-22.944-11.086-20.022-85.167 36.525-172.15 45.33-241.53 24.45l-23.264-7.0013-8.7527 20.357c-58.365 135.74-69.401 154.33-91.644 154.33-7.4253 0-18.604-3.5749-24.842-7.9442zm34.687-24.94c13.093-14.81 101.15-223.45 101.15-239.66 0-18.204-9.4188-37.956-24.526-51.433l-10.909-9.7319 7.9741 15.591c15.064 29.454 10.823 47.116-38.497 160.31-25.559 58.661-50.834 110.35-56.167 114.86-9.1823 7.769-9.2368 8.4711-1.0283 13.249 11.77 6.8508 13.331 6.6249 22.002-3.1839zm480.35-196.41c14.118-43.301 24.696-79.701 23.507-80.891-7.8971-7.8971-30.328 47.368-74.489 183.52-1.3036 4.0191 3.8585 0.285 11.472-8.2983 9.7244-10.964 21.477-39.024 39.511-94.334zm-244.54 27.926c15.702-11.615 43.465-36.993 61.696-56.396l33.148-35.278-22.166-19.511c-29.915-26.333-39.331-57.536-35.147-116.48l2.9846-42.048-115.6-3.0757c-111.51-2.9669-174.74-9.1046-256.54-24.904-21.249-4.1039-39.831-6.2649-41.294-4.8021-4.1938 4.1939 17.675 83.467 31.344 113.62 6.8079 15.017 21.503 40.858 32.655 57.424l20.277 30.119 12.533-25.248c14.428-29.065 35.135-42.279 66.271-42.291 29.716-0.01 66.642 12.679 81.154 27.89 27.387 28.707 29.871 60.71 8.5856 110.62-7.9225 18.576-13.751 34.428-12.952 35.227 4.243 4.243 62.399 15.497 81.891 15.847 19.349 0.3474 26.716-2.6356 51.153-20.712zm87.28-2.8757c116.77-44.852 212.57-164.75 238.96-299.07 4.582-23.32 7.1853-43.545 5.7852-44.945s-9.4055 1.3593-17.79 6.132c-14.191 8.0782-15.246 10.542-15.275 35.666-0.092 80.241-47.4 161.58-113.06 194.39-16.395 8.1927-32.825 14.896-36.51 14.896-11.814 0-31.466 15.84-80.561 64.935-53.709 53.709-52.657 55.306 18.45 27.993zm-740.77-156.51c21.631-10.592 30.754-11.928 81.482-11.931h57.123l2.8525-12.99c5.6302-25.637-11.834-66.263-36.994-86.053-16.983-13.359-50.802-21.594-73.164-17.816-25.522 4.312-55.658 27.218-68.23 51.861-8.0996 15.877-9.9529 26.579-8.3766 48.372 1.8446 25.5 10.703 46.197 18.026 42.116 1.6074-0.8958 13.884-6.9964 27.281-13.557zm710.72-154.43c16.044-34.215 33.752-55.145 67.298-79.545 18.6-13.528 35.778-30.244 38.611-37.572 7.1245-18.426 2.9142-51.851-10.867-86.276l-11.702-29.23-48.705-3.1264c-70.592-4.5315-134.44-16.864-189.98-36.697-26.794-9.5671-59.447-18.455-72.561-19.752-23.19-2.292-23.749-2.0416-20.374 9.1223 10.775 35.64 13.131 53.36 10.542 79.264-5.6108 56.136-40.064 108.31-86.952 131.68-21.124 10.526-31.65 12.458-67.889 12.458h-42.889v42.512l42.627 8.4958c90.729 18.082 172.74 25.834 279.22 26.39l105.06 0.549zm272.82-106.81c-0.9651-76.273-30.449-154.43-83.356-220.98-27.175-34.178-28.199-34.914-29.599-21.274-3.1123 30.317-16.454 65.654-32.946 87.26l-17.256 22.607 11.004 44.693c13.192 53.58 24.294 70.323 59.984 90.466 20.34 11.479 30.32 21.189 40.379 39.286l13.361 24.038 19.487-11.55 19.487-11.55zm-637.65 27.642c5.3588-2.3028 7.2233-4.341 4.1433-4.5293-3.08-0.1885-16.997-8.0118-30.926-17.386s-27.297-15.825-29.706-14.336c-2.4089 1.4887-15.347 2.7918-28.752 2.8956s-24.372 0.9252-24.372 1.8253c0 4.1061 32.302 24.014 48.157 29.681 20.091 7.1798 47.156 7.9943 61.456 1.8494zm62.103-37.756c27.616-28.345 39.983-60.27 40.102-103.52 0.075-26.992-2.4446-41.593-9.6426-55.889-8.6208-17.122-12.873-20.154-36.908-26.317-29.419-7.5441-44.481-5.5581-62.1 8.188l-11.318 8.8298 12.536 23.576c20.823 39.163 15.817 86.512-12.42 117.47-9.0454 9.9159-9.0151 10.256 1.7878 20.112 14.852 13.551 38.042 25.393 50.191 25.631 5.4849 0.1071 17.982-8.026 27.772-18.074zm584.13-158.33c17.827-34.594 13.284-72.195-12.086-100.04-11.508-12.628-26.452-11.488-57.869 4.4142l-18.074 9.1484 22.946 30.448c12.62 16.747 28.422 40.862 35.116 53.589 6.694 12.727 13.774 23.141 15.734 23.141 1.9597 0 8.3644-9.3171 14.233-20.705zm-669.19-35.476c14.571-8.6102 15.253-10.013 7.5943-15.613-14.703-10.751-44.588-7.4383-65.348 7.2441-10.419 7.3685-18.99 14.541-19.047 15.94-0.057 1.3984 13.598 2.3957 30.344 2.2162 20.932-0.2246 35.452-3.2832 46.457-9.7867zm290.1-19.736c59.578-15.407 125.95-51.634 182.28-99.489 30.322-25.761 30.448-25.975 30.448-51.895 0-14.315-0.85-26.028-1.8889-26.028s-16.029 6.6168-33.31 14.704c-109.5 51.24-233.07 30.959-309.56-50.805l-28.073-30.01-18.215 7.4789c-13.004 5.3394-17.317 9.5694-15.076 14.786 25.027 58.264 19.951 129.33-12.429 174.03l-14.294 19.733 32.654 15.051c17.96 8.2781 44.649 17.177 59.31 19.774 33.54 5.9433 89.105 2.7632 128.15-7.3342zm-248.24-41.279 17.364-11.898-65.484-16.172-12.179 11.457c-6.6986 6.3013-17.66 13.56-24.358 16.131l-12.179 4.6744 12.179 5.3027c20.572 8.9569 65 3.9735 84.657-9.4958zm558.37-30.716c0.034-3.8842-24.608-1.2252-45.381 4.8969-8.3626 2.4644-8.3997 3.1495-0.6349 11.729 8.0397 8.8838 8.719 8.8422 27.112-1.6591 10.376-5.9242 18.883-12.659 18.904-14.967zm-516.14-30.573c9.0377-27.385 3.6358-82.597-11.266-115.15-15.517-33.894-50.436-72.107-76.722-83.961l-19.653-8.8621-14.94 14.192c-8.2167 7.8056-19.402 22.872-24.856 33.482l-9.917 19.29 11.466 7.5046c42.604 27.885 63.776 63.405 66.904 112.25 1.1156 17.416 4.496 33.277 7.512 35.245 3.016 1.9686 19.015 3.6128 35.554 3.6538l30.07 0.075zm866.15-18.54c44.552-15.719 70.122-48.709 70.122-90.469 0-21.71-10.258-49.563-20.61-55.961-2.7168-1.6791-12.04 2.003-20.718 8.1823-12.05 8.5806-23.959 11.648-50.402 12.984-38.29 1.9336-59.964-5.4887-77.8-26.642-13.04-15.465-23.227-11.524-38.771 15-20.151 34.386-15.464 78.22 11.4 106.61 31.609 33.408 83.087 45.708 126.78 30.293zm-391.3-84.55c12.015-20.525 21.845-39.107 21.845-41.292 0-2.1854-12.057 8.3765-26.794 23.471-22.058 22.594-26.794 30.433-26.794 44.351 0 22.785 5.6303 18.079 31.743-26.53zm-692.17-24.723c5.5315-5.0178 16.316-11.123 23.966-13.568 9.8025-3.1322 15.679-9.5932 19.904-21.885 3.2976-9.5922 10.89-24.313 16.871-32.714 9.0934-12.77 9.5919-15.273 3.0421-15.273-10.886 0-42.294 16.582-52.241 27.582-4.5416 5.0223-12.714 18.957-18.162 30.966-15.255 33.632-12.877 42.576 6.6187 24.891zm249.54-36.305c0.6993-0.6992-3.0246-15.074-8.2752-31.944-28.25-90.769 3.0039-191.24 81.798-262.96 33.229-30.244 35.32-33.368 35.32-52.786 0-24.935-18.404-48.719-48.04-62.083-18.863-8.506-20.026-8.4557-52.611 2.2754-107.5 35.403-196.29 106.84-233.94 188.22-20.759 44.878-31.13 115.64-22.946 156.56l2.9731 14.866 20.032-10.441c12.128-6.3216 32.17-11.214 50.798-12.4 26.904-1.7132 34.678-0.033 61.932 13.384 28.588 14.074 75.647 57.138 75.647 69.226 0 3.4986 32.168-6.7776 37.308-11.918zm-273.02-10.214c3.4297-7.3991 4.5117-29.33 2.9347-59.48-3.0814-58.91-9.908-47.543-14.25 23.727-2.8856 47.365 0.6924 58.671 11.315 35.753zm438.5-70.35c16.241-32.764-31.339-82.479-55.66-58.158-10.61 10.61-6.9301 40.835 6.9851 57.372 15.884 18.877 39.518 19.259 48.675 0.7859zm229.95-126.96c1.9495-20.454-6.0896-36.504-21.89-43.704-28.085-12.796-42.467 22.378-20.546 50.247 7.9615 10.121 13.781 12.765 25.576 11.618 13.476-1.3101 15.456-3.444 16.859-18.161zm0.8047-134.4c-11.514-13.873-70.601-49.805-102.8-62.516-39.016-15.4-111.88-28.61-146.71-26.598l-25.506 1.4733 18.485 20.42c29.906 33.036 50.747 40.476 113.38 40.476 56.266 0 96.173 7.55 127.58 24.137 22.104 11.673 23.261 11.867 15.576 2.6068z"/><path transform="matrix(7.5 0 0 -7.5 0 4e4)" d="m3314.8 1907.7c-3.2153-3.2153-5.846-9.8391-5.846-14.72 0-14.424-20.714-21.02-35.529-11.314-11.977 7.8476-12.897 7.6434-28.544-6.3366-15.54-13.885-15.93-15.102-10.061-31.332 7.7092-21.319 4.0995-30.744-14.221-37.131-13.691-4.7727-14.415-6.3508-13.007-28.353 1.2584-19.66 3.1477-23.534 12.099-24.809 18.28-2.6029 23.711-13.619 16.519-33.506-5.9721-16.516-5.5853-18.004 8.2866-31.876s15.36-14.259 31.875-8.2866c19.888 7.1914 30.904 1.7603 33.506-16.519 1.2709-8.9251 5.153-10.842 24.477-12.085 22.212-1.4292 23.204-0.9088 30.2 15.833 5.5434 13.267 10.069 17.311 19.373 17.311 6.6772 0 13.495-2.1922 15.151-4.8716 5.1781-8.3784 19.78-5.3441 30.817 6.4036 11.674 12.426 13.7 27.514 4.8787 36.335-7.9802 7.9803 2.6159 30.337 14.378 30.337 13.061 0 20.575 9.7368 20.491 26.551-0.095 18.98-4.1632 24.787-20.093 28.682-16.592 4.0564-20.487 14.94-12.876 35.986 5.869 16.23 5.4781 17.448-10.061 31.332-15.482 13.833-16.676 14.112-28.163 6.5861-15.515-10.166-30.152-5.3534-34.212 11.25-1.7585 7.1899-5.6 14.683-8.5368 16.652-8.4404 5.6577-34.475 4.3098-40.903-2.1177zm52.201-70.891c32.42-16.598 43.611-59.189 23.489-89.398-24.537-36.839-68.949-42.294-99.075-12.169-21.685 21.685-25.528 44.982-12.021 72.883 16.778 34.659 52.861 46.473 87.607 28.685z"/><path transform="matrix(7.5 0 0 -7.5 0 4e4)" d="m3469.3 1807.1c2.888-5.3964 5.251-17.587 5.251-27.09 0-14.186 2.0973-17.805 11.717-20.219 20.834-5.2289 34.564-24.769 34.564-49.19 0-18.613-2.406-24.08-15.91-36.145-18.886-16.875-42.673-18.834-60.302-4.9668-10.294 8.0971-12.922 8.3975-21.106 2.413-5.1415-3.7596-13.166-5.6239-17.833-4.1428-5.4442 1.7279-10.404-0.8941-13.842-7.3173-4.4515-8.3177-3.2717-12.096 6.9783-22.346 10.224-10.224 14.041-11.423 22.296-7.0051 13.543 7.2482 28.134 1.7636 29.988-11.273 1.205-8.4706 5.2551-11.042 19.228-12.209 15.904-1.3281 18.228 0.032 22.887 13.397 5.4521 15.64 18.42 19.686 29.044 9.0615 4.5041-4.5041 9.0323-2.7306 20.099 7.8723 12.222 11.709 13.541 15.319 9.135 24.99-6.6536 14.603-1.931 26.54 10.5 26.54 6.3918 0 10.866 4.2348 12.858 12.168 4.1948 16.714-0.3262 26.08-15.344 31.79-11.513 4.3772-12.43 6.5885-9.6225 23.205 2.5784 15.261 1.1953 20.159-8.1792 28.966-8.0314 7.5451-13.366 9.2816-18.515 6.0264-12.851-8.1257-23.603-5.0323-30.153 8.6751-3.7148 7.7748-11.141 14.071-17.696 15.004-9.9548 1.4158-10.672 0.4422-6.044-8.2052z"/><path transform="matrix(7.5 0 0 -7.5 0 4e4)" d="m3193.8 1687c-3.3761-8.798-24.483-9.7833-27.319-1.2752-1.5733 4.7201-4.7696 4.7753-14.693 0.2537-9.2346-4.2076-13.103-10.1-14.228-21.674-1.2002-12.344-4.2667-16.525-13.725-18.715-15.559-3.6026-19.755-26.832-6.5859-36.462 7.6561-5.5983 7.9454-7.9185 2.3022-18.463-9.1097-17.022-0.4292-31.687 19.932-33.674 12.072-1.1784 16.278-4.3014 18.455-13.705 3.3783-14.591 27.363-20.275 32.214-7.6338 3.4518 8.9953 17.027 10.032 25.139 1.9199 9.6617-9.6617 32.101 3.314 28.637 16.56-3.312 12.665 4.3473 23.256 16.819 23.256 12.718 0 18.362 23.817 7.5222 31.743-9.4193 6.8876-10.367 17.556-2.2783 25.644 8.7435 8.7435-4.6734 31.135-17.652 29.46-13.392-1.7279-22.197 4.3113-22.197 15.224 0 14.598-27.198 20.941-32.34 7.5413zm25.936-47.13c22.756-21.378 11.132-62.314-19.908-70.104-26.29-6.5985-56.113 23.224-49.514 49.514 7.6604 30.522 46.567 42.061 69.422 20.59z"/><path transform="matrix(7.5 0 0 -7.5 0 4e4)" d="m2166.4 3480.4c0.017 0.2076 0.031 0.4014 0.047 0.6015 0.057 0.3216 0.112 0.6454 0.1719 0.9649 3.7284-0.088 7.2722-0.1738 10.746-0.2539-3.698-0.4358-7.3305-0.8745-10.965-1.3125z"/></g></g></g></svg>
