<?xml version="1.0" encoding="UTF-8" standalone="no"?>
<svg
   xmlns:dc="http://purl.org/dc/elements/1.1/"
   xmlns:cc="http://creativecommons.org/ns#"
   xmlns:rdf="http://www.w3.org/1999/02/22-rdf-syntax-ns#"
   xmlns:svg="http://www.w3.org/2000/svg"
   xmlns="http://www.w3.org/2000/svg"
   xmlns:sodipodi="http://sodipodi.sourceforge.net/DTD/sodipodi-0.dtd"
   xmlns:inkscape="http://www.inkscape.org/namespaces/inkscape"
   inkscape:version="1.0beta2 (2b71d25, 2019-12-03)"
   sodipodi:docname="logo_inkscape.svg"
   viewBox="0 0 5333.3335 5333.3335"
   height="5333.3335"
   width="5333.3335"
   xml:space="preserve"
   id="svg28"
   version="1.1"><metadata
     id="metadata34"><rdf:RDF><cc:Work
         rdf:about=""><dc:format>image/svg+xml</dc:format><dc:type
           rdf:resource="http://purl.org/dc/dcmitype/StillImage" /><dc:title></dc:title></cc:Work></rdf:RDF></metadata><defs
     id="defs32" /><sodipodi:namedview
     inkscape:current-layer="g36"
     inkscape:window-maximized="0"
     inkscape:window-y="25"
     inkscape:window-x="1823"
     inkscape:cy="2956.0881"
     inkscape:cx="-28.184208"
     inkscape:zoom="0.20526726"
     showgrid="false"
     id="namedview30"
     inkscape:window-height="1463"
     inkscape:window-width="2280"
     inkscape:pageshadow="2"
     inkscape:pageopacity="0"
     guidetolerance="10"
     gridtolerance="10"
     objecttolerance="10"
     borderopacity="1"
     inkscape:document-rotation="0"
     bordercolor="#666666"
     pagecolor="#ffffff" /><g
     transform="matrix(1.3333333,0,0,-1.3333333,0,5333.3333)"
     inkscape:label="ink_ext_XXXXXX"
     inkscape:groupmode="layer"
     id="g36"><g
       transform="scale(0.1)"
       id="g38"><g
         inkscape:export-ydpi="22.319979"
         inkscape:export-xdpi="22.319979"
         inkscape:export-filename="/Users/jonni/dev/sumbee-score/app-icon.png"
         transform="scale(2.45399)"
         id="g40"
         style="fill:#ffffff;fill-opacity:1"><path
           d="M 0,-0.00390625 V 5333.334 H 5333.3379 V -0.00390625 Z M 3020.2949,3299.5723 c 41.1044,20.299 34.1819,12.0749 44.8672,46.1562 4.715,-5.5099 10.2617,-8.9658 16.0625,-6.7129 50.8577,19.7525 53.0331,69.1783 57.5293,111.3887 0.3396,0.1758 0.6756,0.3603 1.0156,0.5352 -0.2707,0.5045 -0.5334,1.0154 -0.789,1.5312 0.1549,1.4176 0.3026,2.8517 0.4668,4.25 0.025,0.2107 0.044,0.4221 0.068,0.6328 3.8735,1.8319 7.9549,3.8045 12.3516,5.9883 13.2222,6.5675 22.3213,20.2662 28.2031,34.4629 9.5965,2.8139 18.8933,5.7768 24.0918,13.1543 2.287,-0.7386 4.8655,-0.9271 6.0703,0.7226 0.3618,0.4954 0.7162,1.0046 1.0762,1.5039 4.3353,0.866 7.5313,2.3935 6.5312,5.8047 -0.2432,0.8296 -0.5169,1.6702 -0.7988,2.5118 0.4129,0.6351 0.8247,1.2707 1.2285,1.9121 4.0094,-0.05 6.864,0.5581 5.7715,3.5078 -0.4965,1.3405 -1.0064,2.5647 -1.5254,3.7226 1.8167,3.3508 3.4552,6.7827 4.8379,10.2969 7.6646,3.0244 14.1734,7.0556 16.9414,14.3457 2.7637,7.2789 -6.1975,12.1829 -15.6387,15.6641 -0.7724,4.8752 -4.7989,5.1185 -10.041,3.3105 -0.3096,0.096 -0.6213,0.1943 -0.9199,0.2871 0.2256,0.3803 0.4212,0.7025 0.6504,1.0899 -3.1793,1.0608 -6.3326,2.2225 -9.4785,3.4082 -3.3706,6.154 -7.0644,12.2335 -9.752,18.5469 -9.0799,-2.5178 -17.0901,-5.2931 -24.457,-8.418 -1.5087,0.2799 -3.0198,0.5456 -4.5312,0.8105 -7.7144,8.1154 -17.9712,14.6695 -31.0606,18.9434 -8.2584,2.6965 -16.8222,2.1728 -25.4961,0.4902 -0.3151,0.7316 -0.74,1.4939 -1.2598,2.2832 4.9252,15.5819 12.3217,32.4615 0.6407,39.3321 -29.7071,17.4733 -68.8371,5.392 -103.293,4.6054 -9.6976,-0.2213 -23.1541,-0.6934 -38.9316,-1.3457 -1.0575,0.7683 -2.2916,1.3318 -3.7227,1.6485 -76.5466,16.9366 -156.7112,-5.1783 -235.0664,-7.7676 -45.7275,-2.3888 -84.8374,-4.1999 -118.9023,-5.6426 69.5896,28.9093 142.7468,55.5789 223.8554,82.334 60.5377,19.9694 124.3542,28.1148 186.5313,42.1719 47.0402,10.6349 36.1999,58.267 -10.8106,47.5019 -64.487,-14.7671 -130.6605,-23.498 -193.4609,-44.3008 -113.968,-37.7522 -209.2154,-73.9211 -300.1524,-115.5996 -42.9462,23.4399 -96.2933,21.4477 -144.996,28.0449 -133.4193,18.0731 -114.4999,16.775 -206.4239,0.082 24.513,-14.3895 44.6023,-26.504 61.6309,-36.8789 -11.7968,-1.8027 -26.3808,-5.3389 -52.2324,-10.9239 20.9688,0.7952 41.968,2.7009 62.9609,4.3672 12.8755,-7.8811 24.1908,-14.8419 33.7129,-20.6093 -7.4806,-0.2999 -14.9452,-0.3877 -22.3906,-0.2149 -15.1232,1.0676 -30.3485,3.0523 -45.5508,4.7891 -1.4097,0.2786 -2.8189,0.5635 -4.2266,0.8691 -0.6427,-0.064 -1.2879,-0.1178 -1.9316,-0.1777 -25.421,2.75 -50.725,4.301 -75.3125,-0.9395 -4.7017,0.2863 -9.3979,0.514 -14.086,0.6543 -11.9967,2.9985 -26.6226,4.2499 -31.0742,3.0313 -14.4307,3.829 -45.8302,10.2592 -39.4609,-1.291 1.5935,-2.8897 3.3707,-5.6703 5.2812,-8.3711 -6.976,-3.7523 -13.9335,-11.3343 -18.2675,-19.3028 -28.3482,-22.8061 14.3187,-49.7765 34.9121,-60.6152 -44.0179,9.8702 -84.768,12.3759 -112.7559,-12.418 -9.5166,-8.4305 -4.9469,-24.4113 3.9863,-37.6816 -2.1695,-4.8366 -1.7497,-8.8458 3.043,-10.5254 2.6255,-0.9201 5.2658,-1.6912 7.918,-2.332 2.2834,-2.1001 4.6028,-3.9247 6.8711,-5.3555 14.2462,-8.9865 31.1189,-11.112 48.4453,-11.9805 0.1574,-0.3484 0.3135,-0.6974 0.4785,-1.039 -0.1153,-0.041 -0.2539,-0.082 -0.3672,-0.1231 -10.3008,-3.7249 -17.2861,-11.6979 -22.9316,-21.3887 -6.9745,0.3735 -13.9489,0.7543 -20.9239,1.1192 5.768,-2.3076 11.4108,-5.3084 17.0352,-8.4141 -6.5735,-13.3518 -11.7098,-28.5463 -19.5801,-40.2363 38.2448,-2 76.4799,-4.1949 114.7344,-6 10.0007,-0.4719 20.0052,-0.8622 30.0117,-1.2285 1.0931,-10.6429 9.1572,-17.933 20.1152,-17.9141 8.3839,0.014 18.4519,4.3024 28.3672,14.6309 0.4901,0.5104 0.9663,1.0379 1.4512,1.5547 25.2111,-0.8944 50.4118,-1.959 75.5684,-3.795 3.3916,-0.2475 6.7801,-0.5353 10.166,-0.8437 11.5856,-9.8804 30.9808,-5.1292 46.4804,-5.8633 1.1924,-0.056 2.293,-0.089 3.4668,-0.1406 11.6917,-1.6017 23.3809,-3.2281 35.084,-4.6973 20.8196,-2.6137 43.1016,-15.3298 63.0137,-12.1679 4.1717,-0.7922 7.9606,-0.3047 10.9941,2.7109 2.7486,2.7323 5.0059,6.34 6.6934,10.3828 0.9379,2.0942 1.7569,4.3937 2.4356,6.8379 21.4629,1.9435 44.4848,4.4043 72.8789,6.9707 1.4775,0.3031 3.74,0.8041 6.4355,1.4043 4.4634,-2.0709 9.2143,-4.2101 14.3574,-6.4395 7.9072,-3.4274 140.5297,-13.0284 159.6719,-14.4961 6.4949,-0.2467 18.8956,-7.213 19.4844,-0.7402 0.9828,10.8044 1.2722,19.5753 0.8769,26.8164 31.7802,1.1052 50.2047,0.1759 62.7696,0.2383 6.7873,-2.7832 14.3992,-4.5665 20.8437,-6.0605 67.0333,-15.5407 167.6332,-11.2624 231.9824,7.6679 -0.5838,-6.8568 0.4694,-14.1573 2.4746,-28.041 -3.3471,-8.0046 -6.2054,-16.1611 -8.0175,-24.6445 -1.1028,-5.1629 4.7031,1.4343 10.3652,7.7851 1.4358,-10.6966 3.0671,-23.8115 4.8281,-41.1347 z m -941.2168,327.1621 c 0.6795,-0.1803 1.3666,-0.3608 1.9649,-0.5274 1.6329,-0.4546 2.9933,-1.2862 4.1445,-2.4023 -0.1123,-0.095 -0.223,-0.1936 -0.332,-0.2949 -1.299,-0.065 -2.5974,-0.1385 -3.8946,-0.2227 -3.7769,1.748 -3.9784,2.8736 -1.8828,3.4473 z m 6.1094,-2.9297 c 3.7375,3.1615 9.2945,2.8608 16.1934,0.051 -5.32,0.031 -10.6282,-0.065 -15.9219,-0.3164 -0.088,0.092 -0.1806,0.1774 -0.2715,0.2656 z m 16.1934,0.051 c 2.9205,-0.017 5.8443,-0.065 8.7714,-0.1524 2.6791,-0.6696 5.2153,-1.4266 7.4844,-2.2617 -0.3368,-0.097 -0.6746,-0.1963 -1.0137,-0.2988 -2.9052,-0.1373 -5.8076,-0.2866 -8.6992,-0.4824 -2.2854,1.259 -4.483,2.3562 -6.5429,3.1953 z m 138.5566,15.4765 c -3.5513,2.1738 -6.8618,4.2008 -10.7285,6.5567 19.0467,2.9106 31.024,1.2652 71.0039,-3.6348 -20.0637,0.045 -40.1664,-1.3257 -60.2754,-2.9219 z m 862.8203,-269.7871 c -0.1783,0.02 -0.3663,0.2423 -0.5586,0.7129 -2.7762,6.7957 -4.9964,14.2497 -5.0879,21.6094 2.5034,-2.9633 4.8061,-6.032 6.2774,-9.4688 1.4003,-3.2711 0.6173,-12.9954 -0.6309,-12.8535 z m -936.3437,110.8653 c 0.017,0.2076 0.031,0.4014 0.047,0.6015 0.057,0.3216 0.112,0.6454 0.1719,0.9649 3.7284,-0.088 7.2722,-0.1738 10.7461,-0.2539 -3.698,-0.4358 -7.3305,-0.8745 -10.9648,-1.3125 z"
           transform="matrix(3.0562472,0,0,-3.0562472,0,16299.985)"
           style="fill:#ffffff;fill-opacity:1;fill-rule:evenodd;stroke:none;stroke-width:0.327199"
           id="path42" /></g><g
         transform="scale(1.41636)"
         id="g44"><path
           inkscape:connector-curvature="0"
           id="path46"
           style="fill:#18327e;fill-opacity:1;fill-rule:evenodd;stroke:none"
           d="m 15806.3,14058.5 c -44.4,4.4 -86.7,8.9 -133.3,13.4 -126.8,13.3 -240.2,-26.8 -333.6,-115.7 -91.2,-86.7 -135.7,-200.1 -129,-326.9 11.1,-213.5 22.2,-409.2 33.3,-589.3 9,-151.2 4.5,-867.3 135.7,-916.1 255.7,-95.7 393.6,164.5 442.5,318 106.8,331.2 478.1,1147.4 295.7,1427.6 -73.3,111.1 -180.1,175.6 -311.3,189 v 0" /></g><g
         transform="scale(1.41558)"
         id="g48"><path
           inkscape:connector-curvature="0"
           id="path50"
           style="fill:#ffffff;fill-opacity:1;fill-rule:evenodd;stroke:none"
           d="m 15879.5,13903.7 c 420.5,-102.3 -28.9,-1067.9 -100.1,-1341.6 -37.9,-146.8 -129.1,-264.8 -213.7,-304.9 35.7,51.2 66.8,115.8 84.6,187 71.2,271.4 520.7,1239.3 100.1,1339.4 -44.4,4.4 -88.9,8.9 -133.4,13.3 -75.7,8.9 -146.9,-6.6 -211.5,-40.1 15.7,20.1 31.3,40.1 51.2,60.1 82.4,75.7 180.3,109.1 289.3,98 44.5,-4.5 89,-9 133.5,-11.2 v 0" /></g><g
         transform="scale(1.59567)"
         id="g52"><path
           inkscape:connector-curvature="0"
           id="path54"
           style="fill:#18327e;fill-opacity:1;fill-rule:nonzero;stroke:none"
           d="m 15020.9,15285.4 c 0,5.9 0,13.8 0,21.7 2,148.1 69.1,284.2 179.6,382.9 106.7,98.7 256.7,163.9 422.5,171.8 7.8,0 17.7,0 27.6,0 173.7,2 335.6,-59.2 452,-159.9 118.4,-100.7 193.4,-242.7 197.4,-398.7 0,-5.9 0,-13.8 0,-21.8 -4,-148 -71.1,-284.2 -179.6,-382.9 -108.6,-98.6 -258.6,-163.8 -424.4,-171.7 -7.9,0 -15.8,0 -25.6,0 -98.8,0 -191.6,17.8 -276.4,51.3 -77,-114.5 -171.8,-209.2 -274.4,-286.2 -136.2,-102.6 -284.2,-177.6 -416.5,-228.9 0,-9.9 0,-19.8 0,-31.6 0,-3.9 -2,-11.8 -2,-21.7 -5.9,-82.9 -31.5,-159.9 -71.1,-231 v 0 c -33.5,-59.2 -78.9,-114.5 -132.1,-159.8 88.8,-242.8 136.1,-509.3 126.3,-791.6 -15.8,-540.8 -231,-1030.3 -562.6,-1385.6 -702.7,-748.1 -1835.6,-799.4 -2536.3,0 -311.9,355.3 -495.5,844.8 -477.7,1385.6 0,13.9 0,29.6 0,43.5 -65.2,37.4 -122.4,84.8 -171.8,140.1 -80.9,94.8 -138.1,215.1 -159.8,349.4 -9.9,41.4 -15.8,84.8 -13.9,130.3 h -1.9 c 0,1.9 1.9,7.9 1.9,17.7 v 0 c 2,25.6 6,49.3 9.9,73 23.7,183.6 108.6,351.4 233,473.8 134.1,136.1 313.8,219.1 505.3,219.1 3.9,0 11.8,0 23.7,0 59.2,-2 114.4,-11.9 167.7,-29.7 23.7,23.7 49.3,47.4 73,69.2 9.9,9.8 17.8,17.7 27.7,25.6 548.7,-86.9 1131,-236.8 2112,138.1 43.4,17.8 86.9,35.6 128.3,53.4 57.3,15.7 116.4,25.6 177.6,25.6 4,0 11.9,0 23.7,0 150,-5.9 282.3,-67.1 375.1,-159.9 35.5,-35.5 63.1,-74.9 86.8,-118.4 106.6,43.5 223,104.6 327.6,183.6 86.9,65.1 165.8,144.1 227,238.8 -108.5,98.7 -177.6,234.9 -179.6,384.9 v 0" /></g><g
         transform="scale(1.41462)"
         id="g56"><path
           inkscape:connector-curvature="0"
           id="path58"
           style="fill:#ffffff;fill-opacity:1;fill-rule:evenodd;stroke:none"
           d="m 15480.6,15182.2 c -26.7,140.4 -97.9,298.4 -144.7,425.4 -572.2,24.4 -990.7,109.1 -1298,218.1 -389.6,138.1 -603.4,318.4 -719.2,474.3 l -15.5,-15.6 -46.8,-44.6 c 73.5,-40 140.3,-95.7 196,-158 124.6,-144.7 198.1,-340.7 191.4,-558.8 l -2.3,-33.5 c -15.5,-229.3 -115.7,-436.3 -264.8,-585.6 -82.5,-82.3 -180.4,-149.1 -287.2,-191.4 0,0 -133.6,-46.7 -498.8,-24.5 -2.2,-26.7 -2.2,-53.4 -2.2,-77.9 v -2.2 c 2.2,-46.8 2.2,-93.5 6.6,-138.1 60.1,-15.5 431.9,-82.3 494.4,-95.7 207,-33.4 414.1,-55.7 623.3,-73.5 378.6,-28.9 759.2,-33.4 1137.8,-13.4 84.6,291.7 305,480.9 514.3,594.5 64.5,82.4 84.6,200.4 115.7,300.5 v 0" /></g><g
         transform="scale(1.39394)"
         id="g60"><path
           inkscape:connector-curvature="0"
           id="path62"
           style="fill:#ffffff;fill-opacity:1;fill-rule:evenodd;stroke:none"
           d="m 13477.9,15208.7 c 128.8,131.1 216.9,314.1 230.5,515.2 l 2.2,29.4 c 4.6,189.7 -56.4,361.5 -164.9,483.5 -18.1,22.6 -38.4,42.9 -61,63.2 -90.3,-4.5 -176.2,-24.8 -255.3,-61 -67.8,-31.6 -131,-74.5 -183.1,-124.2 18.2,-18.1 36.2,-38.4 49.8,-58.8 67.8,-92.6 106.2,-216.9 101.7,-343.5 l -2.3,-24.8 v 0 c -9.1,-142.3 -76.8,-282.4 -189.8,-379.6 40.6,-45.2 90.4,-83.5 144.6,-115.2 65.6,-38.4 137.9,-63.3 212.4,-76.9 40.7,27.2 79.1,58.8 115.2,92.7 v 0" /></g><g
         transform="scale(1.30293)"
         id="g64"><path
           inkscape:connector-curvature="0"
           id="path66"
           style="fill:#ffffff;fill-opacity:1;fill-rule:evenodd;stroke:none"
           d="m 13440.3,16256.5 c 111.2,-123.3 265.9,-200.6 442.4,-207.9 h 21.7 c 72.6,0 140.2,12.1 205.5,31.4 -41.1,16.9 -79.8,36.3 -118.5,55.7 -74.9,43.4 -142.6,99.1 -198.1,164.3 -67.7,-33.8 -140.3,-50.7 -217.6,-50.7 h -14.5 v 0 c -38.7,2.3 -74.9,7.2 -111.2,16.9 l -9.7,-9.7" /></g><g
         transform="scale(1.31047)"
         id="g68"><path
           inkscape:connector-curvature="0"
           id="path70"
           style="fill:#ffffff;fill-opacity:1;fill-rule:evenodd;stroke:none"
           d="m 13608.1,15475.6 c 60.1,-468.7 250,-889.3 533.6,-1211.4 93.7,-108.1 199.5,-206.6 314.8,-290.8 l -9.6,9.6 c 103.3,-81.7 245.2,-149 430.3,-245.1 209,-84.1 435,-129.8 670.5,-129.8 110.5,38.5 271.6,161 423,302.8 129.8,122.6 252.4,259.6 329.3,367.8 -314.9,98.5 -403.8,504.7 -312.5,971 l 7.2,38.4 c -302.8,-16.8 -605.7,-16.8 -908.5,-2.4 -98.5,4.8 -199.4,9.6 -297.9,16.8 -427.9,33.7 -766.8,81.7 -1180.2,173.1 v 0" /></g><g
         transform="scale(1.41926)"
         id="g72"><path
           inkscape:connector-curvature="0"
           id="path74"
           style="fill:#ffffff;fill-opacity:1;fill-rule:evenodd;stroke:none"
           d="m 15137.1,13086.6 c -77.6,-102.1 -184.2,-222 -299.6,-328.4 -66.5,-62.2 -135.4,-122.2 -201.9,-170.9 410.6,64.3 783.4,275.1 1071.9,583.6 328.4,350.6 550.3,827.8 592.5,1358.1 -17.8,-13.2 -37.8,-24.4 -57.7,-37.7 -40,-24.4 -84.3,-48.8 -131,-71 17.8,-111 17.8,-233 -8.9,-363.9 -88.7,-455 -443.8,-832.3 -816.6,-885.5 -46.6,-31 -102.1,-59.9 -148.7,-84.3 v 0" /></g><g
         transform="scale(1.42022)"
         id="g76"><path
           inkscape:connector-curvature="0"
           id="path78"
           style="fill:#ffffff;fill-opacity:1;fill-rule:evenodd;stroke:none"
           d="m 15694.5,14918.4 c 177.5,-53.2 310.5,-192.9 374.9,-383.7 33.2,15.6 64.3,33.3 93.1,51 48.9,31.1 95.3,62.2 133.1,95.4 4.4,374.8 -79.8,725.2 -235.1,1024.6 -102,201.8 -237.3,381.4 -394.8,532.2 35.6,-339.3 -177.3,-569.9 -266.1,-649.8 57.7,-150.8 99.8,-312.7 128.7,-479 42.1,-70.9 97.6,-133 166.2,-190.7 v 0" /></g><g
         transform="scale(1.42776)"
         id="g80"><path
           inkscape:connector-curvature="0"
           id="path82"
           style="fill:#ffffff;fill-opacity:1;fill-rule:evenodd;stroke:none"
           d="m 15777.2,16138.9 c 123.5,-136.8 231.6,-291.1 317.6,-461.1 19.9,-35.2 37.5,-72.7 52.9,-108 33.1,33.1 61.8,68.4 83.9,110.3 35.3,61.8 59.6,132.4 64,205.1 v 19.9 c 4.4,125.7 -42,238.2 -125.8,322.1 -13.2,15.4 -28.6,28.6 -46.3,41.8 -70.6,-2.1 -139,-17.6 -198.6,-41.8 -55.1,-22.1 -105.9,-53 -147.7,-88.3 z m 454.4,-458.8 v 0" /></g><g
         transform="scale(1.43375)"
         id="g84"><path
           inkscape:connector-curvature="0"
           id="path86"
           style="fill:#ffffff;fill-opacity:1;fill-rule:evenodd;stroke:none"
           d="m 15623.4,16161.6 c 54.9,46.1 116.5,83.4 186.8,109.8 15.3,6.6 30.7,13.2 48.2,17.6 -28.5,6.6 -57,8.8 -85.6,11 h -19.8 c -54.9,0 -109.8,-8.8 -160.4,-24.2 -24.1,-6.6 -46.2,-15.3 -68.1,-24.1 33,-28.6 66,-59.3 98.9,-90.1 v 0" /></g><g
         transform="scale(1.40612)"
         id="g88"><path
           inkscape:connector-curvature="0"
           id="path90"
           style="fill:#ffffff;fill-opacity:1;fill-rule:evenodd;stroke:none"
           d="m 12825.9,16049.1 c 67.1,67.2 145.6,121 235.2,161.3 42.5,20.2 89.5,38 138.9,49.3 -60.5,24.7 -123.3,38 -192.7,40.3 h -20.2 c -179.1,0 -347.2,-78.4 -474.8,-206.1 l -24.7,-26.9 9,-6.7 9,-8.9 c 51.5,20.1 107.5,31.3 163.5,31.3 h 11.1 v 0 c 53.8,-2.2 103.1,-13.4 145.7,-33.6 z m -329.3,11.2 v 0" /></g><g
         transform="scale(1.58388)"
         id="g92"><path
           inkscape:connector-curvature="0"
           id="path94"
           style="fill:#ffffff;fill-opacity:1;fill-rule:evenodd;stroke:none"
           d="m 15248.1,15405.2 c 1.9,-127.2 63.6,-242.7 161.1,-324.2 97.4,-83.5 230.6,-135.2 375.7,-133.2 h 22 c 137.2,8 260.4,59.7 348,139.2 87.5,81.5 141.1,188.9 145.1,308.2 v 16 c -4,109.3 -49.7,210.7 -125.3,290.3 -25.8,-37.8 -65.6,-69.6 -113.3,-91.5 -77.6,-39.8 -179,-57.7 -278.4,-49.7 -99.5,7.9 -184.9,43.7 -248.6,93.4 -41.7,31.9 -73.5,71.6 -91.4,115.3 -17.9,-11.8 -35.8,-25.8 -51.8,-39.7 -87.4,-79.5 -141.2,-189 -143.1,-308.2 v -15.9" /></g><g
         transform="scale(1.35317)"
         id="g96"><path
           inkscape:connector-curvature="0"
           id="path98"
           style="fill:#cfcfcf;fill-opacity:1;fill-rule:evenodd;stroke:none"
           d="m 15350.4,13202.1 c 351.5,55.8 677.4,214.1 949.6,446.9 -207.1,-158.3 -414.2,-260.8 -600.4,-274.7 -37.3,-4.7 -32.6,81.5 41.9,190.9 -93.2,-100.1 -281.7,-284 -391.1,-363.1 v 0" /></g><g
         transform="scale(1.42022)"
         id="g100"><path
           inkscape:connector-curvature="0"
           id="path102"
           style="fill:#ffffff;fill-opacity:1;fill-rule:evenodd;stroke:none"
           d="m 15668,16120.4 c 161.9,-184.1 483.4,-634.3 554.4,-1386.1 4.4,-33.3 6.6,-68.8 8.9,-104.3 22.2,17.9 44.3,35.5 64.3,51.1 4.4,374.8 -79.8,725.2 -235.1,1024.6 -102,201.8 -237.3,381.4 -394.8,532.2 4.5,-39.9 4.5,-79.9 2.3,-117.5 v 0" /></g><g
         transform="scale(1.41926)"
         id="g104"><path
           inkscape:connector-curvature="0"
           id="path106"
           style="fill:#ffffff;fill-opacity:1;fill-rule:evenodd;stroke:none"
           d="m 16242.3,14491.3 c 0,0 -79.9,-594.7 -195.2,-841 137.5,264 226.2,561.4 252.9,878.7 -17.8,-13.2 -37.8,-24.4 -57.7,-37.7 v 0" /></g><g
         transform="scale(1.53229)"
         id="g108"><path
           inkscape:connector-curvature="0"
           id="path110"
           style="fill:#cfcfcf;fill-opacity:1;fill-rule:evenodd;stroke:none"
           d="m 16057.5,16180.8 c -43.2,32.9 -76,74 -94.5,119.2 -18.5,-12.3 -37,-26.7 -53.5,-41.1 -90.4,-82.2 -146,-195.3 -148,-318.6 v -16.4 c 2,-131.5 65.8,-250.8 166.5,-335.1 30.9,-26.7 65.8,-51.3 104.9,-71.9 -326.8,472.8 28.7,659.8 24.6,663.9 v 0" /></g><g
         transform="scale(1.58388)"
         id="g112"><path
           inkscape:connector-curvature="0"
           id="path114"
           style="fill:#ffffff;fill-opacity:1;fill-rule:evenodd;stroke:none"
           d="m 16174.7,15701.5 c -15.8,-23.9 -39.7,-45.7 -65.6,-63.7 81.5,-103.4 139.3,-270.4 61.7,-534.9 77.6,77.6 127.2,181 129.2,292.3 v 16 c -4,109.3 -49.7,210.7 -125.3,290.3 v 0" /></g><g
         transform="scale(1.42235)"
         id="g116"><path
           inkscape:connector-curvature="0"
           id="path118"
           style="fill:#cfcfcf;fill-opacity:1;fill-rule:evenodd;stroke:none"
           d="m 15837.2,16200.3 c 154.9,-170.5 281.2,-365.4 372,-571.3 55.4,55.3 64.2,66.4 90.8,137.3 -82,172.7 -312.3,440.7 -405.2,476.1 -24.4,-6.7 -44.3,-28.8 -57.6,-42.1 v 0" /></g><g
         transform="scale(1.43065)"
         id="g120"><path
           inkscape:connector-curvature="0"
           id="path122"
           style="fill:#cfcfcf;fill-opacity:1;fill-rule:evenodd;stroke:none"
           d="m 15714.5,16238.4 c -85.9,50.6 -99.1,59.4 -123.3,61.6 -24.3,-6.6 -11.1,-4.3 -33,-13.1 33,-28.6 66,-59.5 99,-90.3 28.7,22 30.8,24.2 57.3,41.8 v 0" /></g><g
         transform="scale(1.35569)"
         id="g124"><path
           inkscape:connector-curvature="0"
           id="path126"
           style="fill:#ffffff;fill-opacity:1;fill-rule:evenodd;stroke:none"
           d="m 16039.8,15788.8 c -7,-248.6 -529.7,-355.4 -618,-817.7 -283.5,-58.1 -1249.9,-37.3 -1249.9,-37.3 443.7,-41.7 880.5,-48.7 1324.2,-25.5 62.7,260.2 295.1,490.2 536.7,620.4 86,51 130.1,183.5 120.8,313.5 -27.9,146.4 -102.3,311.4 -151,443.9 -32.5,2.2 -202.1,11.5 -232.3,13.9 227.6,-79.1 278.8,-248.7 269.5,-511.2 v 0" /></g><g
         transform="scale(1.40612)"
         id="g128"><path
           inkscape:connector-curvature="0"
           id="path130"
           style="fill:#ffffff;fill-opacity:1;fill-rule:evenodd;stroke:none"
           d="m 12987.1,16300 c -26.9,0 -56,-2.3 -82.8,-6.7 80.6,0 147.8,-29.1 192.6,-67.3 38.1,15.8 62.7,24.7 103.1,33.7 -60.5,24.7 -123.3,38 -192.7,40.3 h -20.2" /></g><g
         transform="scale(1.39394)"
         id="g132"><path
           inkscape:connector-curvature="0"
           id="path134"
           style="fill:#cfcfcf;fill-opacity:1;fill-rule:evenodd;stroke:none"
           d="m 13342.3,16279.7 c 366.1,-259.8 289.3,-919.6 -128.7,-1118.4 47.4,-20.4 97.2,-36.2 149.1,-45.3 40.7,27.2 79.1,58.8 115.2,92.7 128.8,131.1 216.9,314.1 230.5,515.2 l 2.2,29.4 c 4.6,189.7 -56.4,361.5 -164.9,483.5 -18.1,22.6 -38.4,42.9 -61,63.2 -49.7,-2.2 -97.2,-9 -142.4,-20.3 v 0" /></g><g
         transform="scale(1.29115)"
         id="g136"><path
           inkscape:connector-curvature="0"
           id="path138"
           style="fill:#ffffff;fill-opacity:1;fill-rule:evenodd;stroke:none"
           d="m 14119.2,16283 c -9.8,7.2 -17.1,12.1 -26.8,17 -61.1,-36.6 -178.1,-63.5 -327,-46.4 73.2,-34.1 156.2,-56.1 244,-58.5 h 21.9 c 73.3,0 141.5,12.2 207.4,31.7 -41.5,17 -80.5,36.6 -119.5,56.2 v 0" /></g><g
         transform="scale(1.73808)"
         id="g140"><path
           inkscape:connector-curvature="0"
           id="path142"
           style="fill:#18327e;fill-opacity:1;fill-rule:nonzero;stroke:none"
           d="m 11450.7,12976.6 c -57.9,-7.3 -115.9,-10.9 -172.1,-12.7 -299,-10.9 -585.3,48.9 -837.2,170.3 -88.8,-3.6 -179.4,18.2 -264.5,58 -110.6,50.8 -213.89,136 -297.2,246.5 -29,32.6 -54.43,68.8 -77.9,110.5 v 0 c 0,1.8 -3.63,7.3 -7.26,16.3 v 0 c -10.93,21.8 -19.96,45.3 -27.21,67.1 -50.74,115.9 -76.12,233.7 -77.96,346.1 -123.18,373.3 -83.31,779.2 90.62,1143.4 170.36,360.7 471.11,681.4 875.31,891.6 445.7,231.9 933.2,286.3 1359.1,186.7 431.2,-101.5 802.7,-358.9 1009.3,-750.3 208.4,-391.4 213.8,-840.8 52.5,-1250.3 -328,-625.2 -454.7,-933.3 -1625.5,-1223.2 v 0" /></g><g
         transform="scale(1.51277)"
         id="g144"><path
           inkscape:connector-curvature="0"
           id="path146"
           style="fill:#ffffff;fill-opacity:1;fill-rule:evenodd;stroke:none"
           d="m 14380.5,15917 c -326.9,-170.8 -687.1,-206.2 -1005.7,-125 -295.6,75 -553.8,247.8 -718.2,508 -31.3,-14.5 -62.5,-29.1 -95.8,-43.7 l -91.6,-39.5 c 95.7,-206.1 118.6,-422.7 81.1,-612.1 -29.1,-149.9 -97.8,-281.1 -201.8,-374.8 77,-43.7 156.1,-83.3 239.3,-114.5 672.6,-264.5 1474.1,154 1900.9,601.7 4.2,60.4 6.2,120.8 6.2,179 0,29.2 0,56.3 -2,85.4 -35.4,-22.9 -72.9,-43.7 -112.4,-64.5 v 0" /></g><g
         transform="scale(1.54234)"
         id="g148"><path
           inkscape:connector-curvature="0"
           id="path150"
           style="fill:#ffffff;fill-opacity:1;fill-rule:evenodd;stroke:none"
           d="m 12195.4,15342.2 c 32.7,165.4 8.2,359.4 -79.7,541.2 l -14.2,26.5 c -89.9,167.5 -220.6,294.1 -361.5,359.4 -26.6,12.3 -51.1,22.5 -77.6,30.7 -65.4,-38.8 -120.5,-91.9 -161.3,-153.1 -34.7,-53.1 -61.3,-114.5 -75.6,-179.8 22.5,-8.2 45,-18.4 67.4,-32.6 96,-55.2 183.8,-147.1 245.1,-261.5 l 10.2,-20.4 v 0 c 61.2,-124.5 75.5,-255.3 53.1,-369.6 -2,-12.3 -4.1,-26.5 -8.2,-38.8 53.1,-22.5 110.3,-38.8 167.5,-44.9 65.3,-6.2 132.7,-2.1 196,16.3 16.3,40.9 30.6,81.7 38.8,126.6 v 0" /></g><g
         transform="scale(1.4322)"
         id="g152"><path
           inkscape:connector-curvature="0"
           id="path154"
           style="fill:#ffffff;fill-opacity:1;fill-rule:evenodd;stroke:none"
           d="m 12878.1,16236.3 c -79.1,8.7 -156.1,30.7 -230.9,63.7 -35.2,-55 -81.3,-99 -138.6,-127.6 l -13.1,-6.5 v 0 c -28.5,-13.2 -59.4,-24.3 -90.2,-28.7 l -2.2,-13.2 c 145.2,-65.9 301.3,-72.5 437.7,-8.8 l 15.3,8.8 c 55,28.7 101.2,63.8 138.6,107.8 -37.4,-2.2 -77,0 -116.6,4.5 v 0" /></g><g
         transform="scale(1.54447)"
         id="g156"><path
           inkscape:connector-curvature="0"
           id="path158"
           style="fill:#ffffff;fill-opacity:1;fill-rule:evenodd;stroke:none"
           d="m 11291.5,15967.6 c 18.4,85.6 49,165.2 95.9,234.6 24.4,36.6 50.9,69.2 81.5,97.8 -57.1,-2 -112.1,-14.2 -165.1,-40.8 l -14.3,-6.1 c -136.7,-71.4 -224.4,-208 -257,-369.1 l -4,-32.6 8.1,-4.1 12.3,-4.1 c 28.5,38.7 65.2,71.4 106,91.8 l 10.2,6 v 0 c 40.8,18.4 83.6,26.6 126.4,26.6 z m -254.9,-120.3 v 0" /></g><g
         transform="scale(1.58021)"
         id="g160"><path
           inkscape:connector-curvature="0"
           id="path162"
           style="fill:#ffa032;fill-opacity:1;fill-rule:evenodd;stroke:none"
           d="m 10781,15821.6 c -29.9,157.5 -37.9,318.9 -25.9,478.4 -59.8,-207.3 -77.8,-420.6 -51.9,-629.9 20,55.9 45.8,105.7 77.8,151.5 v 0" /></g><g
         transform="scale(1.7145)"
         id="g164"><path
           inkscape:connector-curvature="0"
           id="path166"
           style="fill:#ffffff;fill-opacity:1;fill-rule:evenodd;stroke:none"
           d="m 10019.2,15012.3 c -9.2,-110.3 -7.3,-220.5 7.3,-330.7 27.6,22 57,44.1 90.1,60.6 l 16.5,7.4 c 145.2,67.9 310.5,58.8 463,-12.9 135.9,-62.4 260.8,-176.4 352.7,-327 29.4,12.8 56.9,23.9 86.3,36.8 l 77.2,34.8 c -123.2,257.3 -125,543.8 -29.4,804.7 86.3,233.3 251.6,444.5 481.3,595.2 42.2,143.3 58.8,282.9 -270.1,418.8 -148.8,-36.7 -295.8,-93.7 -440.9,-167.2 -457.4,-238.7 -791.7,-552.9 -834,-1120.5 v 0" /></g><g
         transform="scale(1.72146)"
         id="g168"><path
           inkscape:connector-curvature="0"
           id="path170"
           style="fill:#e6e6e6;fill-opacity:1;fill-rule:evenodd;stroke:none"
           d="m 11596.1,16289.1 c 75,-142.8 239.7,-259.9 415.3,-278.2 172,29.3 344,22 503.2,-18.3 111.6,-27.4 217.7,-73.2 312.8,-131.7 -190.2,190.3 -437.3,322 -711.7,386.1 -166.5,38.4 -342.1,53 -519.6,42.1 v 0" /></g><g
         transform="scale(1.52263)"
         id="g172"><path
           inkscape:connector-curvature="0"
           id="path174"
           style="fill:#e6e6e6;fill-opacity:1;fill-rule:evenodd;stroke:none"
           d="m 14827.2,16300 c -82.7,-126.2 -188.3,-242 -312.3,-341.3 4.1,-57.9 4.1,-117.9 4.1,-177.9 v -22.8 c 126.2,157.3 225.5,328.9 293.8,506.9 l 14.4,35.1" /></g><g
         transform="scale(1.54447)"
         id="g176"><path
           inkscape:connector-curvature="0"
           id="path178"
           style="fill:#cfcfcf;fill-opacity:1;fill-rule:evenodd;stroke:none"
           d="m 11289.5,16253.1 c -93.9,-48.9 -163.1,-128.4 -208,-224.3 75.4,93.8 224.3,205.9 316,187.6 34.7,40.8 28.6,42.8 71.4,83.6 -57.1,-2 -112.1,-14.2 -165.1,-40.8 l -14.3,-6.1" /></g><g
         transform="scale(1.54234)"
         id="g180"><path
           inkscape:connector-curvature="0"
           id="path182"
           style="fill:#cfcfcf;fill-opacity:1;fill-rule:evenodd;stroke:none"
           d="m 12060.6,15199.3 c 32.7,2 63.3,8.1 96,16.3 16.3,40.9 30.6,81.7 38.8,126.6 32.7,165.4 8.2,359.4 -79.7,541.2 l -14.2,26.5 c -89.9,167.5 -220.6,294.1 -361.5,359.4 -26.6,12.3 -51.1,22.5 -77.6,30.7 -44.9,-26.6 -55.2,-30.7 -87.8,-67.4 287.9,-16.4 684.1,-498.3 486,-1033.3 v 0" /></g><g
         transform="scale(1.42641)"
         id="g184"><path
           inkscape:connector-curvature="0"
           id="path186"
           style="fill:#cfcfcf;fill-opacity:1;fill-rule:evenodd;stroke:none"
           d="m 12939.3,16300 c -119.2,-103.8 -280.4,-134.7 -397.4,-143.5 119.2,-33.2 240.7,-26.5 351.1,24.2 l 15.4,8.9 c 55.2,28.7 101.6,64 139.1,108.2 -35.3,-2.2 -72.9,0 -108.2,2.2 v 0" /></g><g
         transform="scale(1.47278)"
         id="g188"><path
           inkscape:connector-curvature="0"
           id="path190"
           style="fill:#e6e6e6;fill-opacity:1;fill-rule:evenodd;stroke:none"
           d="m 14888.5,16300 c -483.3,-498.2 -1571.8,-857.6 -2020.9,-363.5 -38.5,-115.5 -100.4,-216 -183.8,-293 744.1,-474.8 1680.8,-42.9 2198.3,500.4 4.3,53.4 6.4,104.8 6.4,156.1 v 0" /></g><g
         transform="scale(1.52128)"
         id="g192"><path
           inkscape:connector-curvature="0"
           id="path194"
           style="fill:#ffffff;fill-opacity:1;fill-rule:evenodd;stroke:none"
           d="m 11196.5,16092.9 8.3,-4.1 12.5,-4.1 c 28.9,39.3 66.2,72.4 107.6,93.1 l 10.3,6.2 v 0 c 41.5,18.6 85,26.9 128.4,26.9 6.2,24.9 12.4,49.7 18.6,72.5 -91,16.6 -258.8,-74.6 -285.7,-190.5 v 0" /></g><g
         transform="scale(1.51548)"
         id="g196"><path
           inkscape:connector-curvature="0"
           id="path198"
           style="fill:#ffffff;fill-opacity:1;fill-rule:evenodd;stroke:none"
           d="m 11696.6,16216.9 c 220.2,-124.8 363.7,-415.8 313.8,-663 -2,-12.5 -4.1,-27.1 -8.3,-39.5 31.1,-12.5 64.4,-25 97.7,-33.3 110.1,305.5 -199.5,764.8 -459.3,818.9 -12.5,-31.2 -4.2,-16.6 -12.5,-49.9 22.9,-8.4 45.8,-18.7 68.6,-33.2 v 0" /></g><g
         transform="scale(1.4322)"
         id="g200"><path
           inkscape:connector-curvature="0"
           id="path202"
           style="fill:#ffffff;fill-opacity:1;fill-rule:evenodd;stroke:none"
           d="m 12647.2,16300 c -35.2,-55 -81.3,-99 -138.6,-127.6 l -13.1,-6.5 v 0 c -28.5,-13.2 -59.4,-24.3 -90.2,-28.7 l -2.2,-13.2 c 2.2,-2.2 4.4,-4.4 8.8,-4.4 118.8,8.8 255.1,22 334.3,143 -33,11 -66,22 -99,37.4 v 0" /></g><g
         transform="scale(1.71837)"
         id="g204"><path
           inkscape:connector-curvature="0"
           id="path206"
           style="fill:#ffffff;fill-opacity:1;fill-rule:evenodd;stroke:none"
           d="m 10277.1,14762.3 c -474.72,538.8 542.5,1537.7 1141.9,1422.2 -42.2,33 -55,34.9 -150.3,78.8 -641.5,-130 -1440.65,-703.8 -1264.7,-1614.7 93.5,86.1 223.6,106.3 273.1,113.7 v 0" /></g><g
         transform="scale(1.58021)"
         id="g208"><path
           inkscape:connector-curvature="0"
           id="path210"
           style="fill:#ffffff;fill-opacity:1;fill-rule:evenodd;stroke:none"
           d="m 10781,15821.6 c -29.9,157.5 -37.9,318.9 -25.9,478.4 -59.8,-207.3 -77.8,-420.6 -51.9,-629.9 20,55.9 45.8,105.7 77.8,151.5 v 0" /></g><g
         transform="scale(1.72146)"
         id="g212"><path
           inkscape:connector-curvature="0"
           id="path214"
           style="fill:#ffffff;fill-opacity:1;fill-rule:evenodd;stroke:none"
           d="m 11658.3,16203 c 215.9,14.7 695.3,-1.8 1169.1,-342.1 -190.2,190.3 -437.3,322 -711.7,386.1 -166.5,38.4 -342.1,53 -519.6,42.1 16.5,-31.2 36.6,-58.6 62.2,-86.1 v 0" /></g><g
         transform="scale(1.64224)"
         id="g216"><path
           inkscape:connector-curvature="0"
           id="path218"
           style="fill:#ffffff;fill-opacity:1;fill-rule:evenodd;stroke:none"
           d="m 12119,15766.8 c 69.1,36.4 165,-13.4 216.8,-109.3 49.8,-95.9 36.4,-203.2 -32.6,-239.8 -67.2,-34.4 -165,13.5 -214.8,111.3 -51.8,95.9 -38.4,203.3 30.6,237.8 z m 1081.7,502.5 c 57.5,30.7 140.1,-11.5 182.2,-93.9 44.1,-80.6 32.6,-170.7 -24.9,-201.4 -57.5,-30.7 -140.1,11.5 -184.1,93.9 -42.3,80.6 -30.7,170.8 26.8,201.4 v 0" /></g><g
         transform="scale(1.35433)"
         id="g220"><path
           inkscape:connector-curvature="0"
           id="path222"
           style="fill:#18327e;fill-opacity:1;fill-rule:nonzero;stroke:none"
           d="m 11886.1,15120.9 c 204.6,0 388.4,-81.4 520.9,-213.9 134.8,-134.9 216.3,-318.6 216.3,-520.9 0,-204.7 -81.5,-388.4 -216.3,-521 -132.5,-132.6 -316.3,-216.3 -520.9,-216.3 -202.4,0 -386.1,83.7 -518.6,216.3 -134.9,132.6 -216.3,316.3 -216.3,521 0,202.3 81.4,386 216.3,520.9 55.8,55.7 120.8,102.3 193,139.5 167.4,555.8 627.9,811.6 1176.7,1116.2 83.7,46.6 169.8,95.4 244.2,137.3 l 132.5,-227.9 c -92.9,-53.5 -172,-97.7 -248.8,-139.6 -430.3,-239.4 -800,-444.2 -983.7,-811.6 h 4.7" /></g><g
         transform="scale(1.23666)"
         id="g224"><path
           inkscape:connector-curvature="0"
           id="path226"
           style="fill:#ffffff;fill-opacity:1;fill-rule:evenodd;stroke:none"
           d="m 13012,16300 c 315.8,0 570.5,-254.6 570.5,-570.6 0,-55.9 -7.7,-112 -23,-162.9 -104.3,25.5 -219,40.7 -336.1,40.7 -275.1,0 -519.6,-76.4 -685.2,-196 -61.1,91.7 -96.7,201.1 -96.7,318.2 0,316 254.7,570.6 570.5,570.6 v 0" /></g><g
         transform="scale(1.38312)"
         id="g228"><path
           inkscape:connector-curvature="0"
           id="path230"
           style="fill:#cfcfcf;fill-opacity:1;fill-rule:evenodd;stroke:none"
           d="m 13387.5,15047.5 c 0,0 -136.6,-47.7 -510.1,-25 -2.3,-75.2 0,-150.3 4.5,-223.2 25.1,-6.8 52.5,-13.6 79.8,-18.2 l -2.3,2.3 c 63.7,-13.6 327.9,-63.8 407.6,-77.4 -116.1,170.8 430.4,257.3 642.2,728.6 134.3,305.2 111.5,624 36.4,854 -63.8,2.3 -125.2,4.5 -186.7,11.4 66,-123 100.2,-268.7 95.6,-423.5 l -2.3,-34.2 c -15.9,-234.6 -118.4,-446.3 -270.9,-599 -84.3,-84.2 -184.5,-152.5 -293.8,-195.8 v 0" /></g><g
         transform="scale(1.22139)"
         id="g232"><path
           inkscape:connector-curvature="0"
           id="path234"
           style="fill:#cfcfcf;fill-opacity:1;fill-rule:evenodd;stroke:none"
           d="m 12816.2,15678.6 c -128.9,152.1 -162.5,368.7 -82.6,621.4 -85,-100.5 -136.5,-232 -136.5,-373.9 0,-118.6 36,-229.4 97.9,-322.3 36.1,28.4 77.4,51.6 121.2,74.8 v 0" /></g><g
         transform="scale(1.23472)"
         id="g236"><path
           inkscape:connector-curvature="0"
           id="path238"
           style="fill:#ffffff;fill-opacity:1;fill-rule:evenodd;stroke:none"
           d="m 13200.7,16300 c 219.4,-127.6 321.4,-426 214.3,-678.5 56.1,-7.7 112.2,-17.8 165.8,-30.6 15.3,51 23,107.1 23,163.1 0,257.8 -168.4,474.6 -403.1,546 v 0" /></g><g
         transform="scale(1.27607)"
         id="g240"><path
           inkscape:connector-curvature="0"
           id="path242"
           style="fill:#cfcfcf;fill-opacity:1;fill-rule:evenodd;stroke:none"
           d="m 14513,15791.6 c -172.8,27.1 -348,59.2 -538,101.1 61.7,-481.3 256.6,-913.2 547.9,-1243.9 96.2,-111.1 204.9,-212.2 323.3,-298.7 l -9.8,9.9 c 106.1,-83.9 251.8,-153.1 441.8,-251.8 214.7,-86.4 446.8,-133.2 688.6,-133.2 88.9,29.6 209.9,113.5 333.2,219.6 -1490.8,204.9 -1727.7,1211.9 -1787,1597 v 0" /></g><g
         transform="scale(1.21946)"
         id="g244"><path
           inkscape:connector-curvature="0"
           id="path246"
           style="fill:#18327e;fill-opacity:1;fill-rule:evenodd;stroke:none"
           d="m 15768,15783.5 c 49,-13 98,-26 149.7,-38.8 142.1,-38.7 250.5,-129.2 315.1,-260.9 64.6,-134.3 67.2,-273.7 7.7,-410.7 -98,-227.3 -191,-436.5 -273.7,-627.5 -69.7,-160.3 -356.4,-942.8 -519.1,-942.8 -317.7,0 -361.6,338.3 -353.9,526.9 18.1,402.9 -54.2,1443.9 258.3,1673.6 124,90.5 268.6,118.9 415.9,80.2 v 0" /></g><g
         transform="scale(1.20555)"
         id="g248"><path
           inkscape:connector-curvature="0"
           id="path250"
           style="fill:#ffffff;fill-opacity:1;fill-rule:evenodd;stroke:none"
           d="m 15456.1,13904.2 c 75.8,-104.4 180.3,-117.6 253.5,47.1 114.8,266.5 229.9,530.4 344.8,794.2 91.5,211.6 99.3,227.2 193.3,438.9 52.3,120.2 49.6,240.4 -7.8,357.9 -44.4,91.4 -109.8,156.8 -193.3,198.5 34,-33.9 60,-73 83.5,-120.1 57.6,-117.5 60.2,-240.3 7.9,-358 -94,-211.6 -101.9,-229.8 -193.3,-441.5 -114.9,-263.8 -229.9,-527.7 -344.9,-791.5 -41.8,-94.1 -94,-130.7 -143.7,-125.5 v 0" /></g><g
         transform="scale(1.69537)"
         id="g252"><path
           inkscape:connector-curvature="0"
           id="path254"
           style="fill:#18327e;fill-opacity:1;fill-rule:evenodd;stroke:none"
           d="m 14758.1,16006.5 c 161.6,0 289.8,-130.1 289.8,-289.8 0,-159.8 -128.2,-289.8 -289.8,-289.8 -159.8,0 -288,130 -288,289.8 0,159.7 128.2,289.8 288,289.8 z m 163.4,146.7 c 11.2,-3.6 20.5,-7.3 31.6,-11 18.6,-9.4 39,-7.5 55.7,3.7 l 46.5,33.4 c 22.3,16.7 52,13 72.4,-5.6 l 42.8,-44.6 44.6,-44.6 c 18.6,-18.5 22.3,-48.3 5.5,-72.4 l -31.5,-44.7 c -13,-16.6 -14.9,-37.1 -5.6,-57.5 3.7,-9.3 7.5,-18.6 13,-29.7 5.6,-18.6 22.3,-31.6 42.8,-35.3 l 55.7,-9.3 c 26,-5.6 46.4,-27.9 46.4,-55.7 v -63.2 -61.3 c 0,-27.9 -20.4,-50.2 -46.4,-55.7 l -55.7,-9.3 c -20.5,-3.8 -37.2,-16.8 -42.8,-35.4 -5.5,-11.1 -9.3,-20.4 -13,-31.5 -9.3,-18.6 -7.4,-39 5.6,-55.8 l 31.5,-46.4 c 16.8,-22.3 13.1,-52 -5.5,-72.5 l -44.6,-42.7 -42.8,-44.6 c -20.4,-20.4 -50.1,-22.3 -72.4,-5.5 l -46.5,31.5 c -16.7,13.1 -37.1,14.9 -55.7,5.6 -11.1,-3.7 -20.4,-9.3 -31.6,-13 -18.5,-7.4 -31.5,-22.3 -35.2,-42.8 l -9.3,-55.6 c -5.6,-27.9 -27.9,-46.5 -55.7,-46.5 h -63.2 -61.3 c -27.9,0 -50.2,18.6 -55.7,46.5 l -9.3,55.6 c -3.8,20.5 -16.7,35.4 -35.4,42.8 -11.1,3.7 -20.4,9.3 -31.5,13 -18.6,9.3 -39.1,7.5 -55.8,-5.6 l -46.4,-31.5 c -22.3,-16.8 -52,-14.9 -72.5,5.5 l -42.7,44.6 -44.6,42.7 c -18.6,20.5 -22.2,50.2 -5.5,72.5 l 31.6,46.4 c 13,16.8 14.8,37.2 5.5,55.8 -3.7,11.1 -9.2,20.4 -13,31.5 -7.4,18.6 -22.3,31.6 -42.7,35.4 l -55.7,9.3 c -27.9,5.5 -46.5,27.8 -46.5,55.7 v 61.3 63.2 c 0,27.8 18.6,50.1 46.5,55.7 l 55.7,9.3 c 20.4,3.7 35.3,16.7 42.7,35.3 3.8,11.1 9.3,20.4 13,29.7 9.3,20.4 7.5,40.9 -5.5,57.5 l -31.6,44.7 c -16.7,24.1 -13.1,53.9 5.5,72.4 l 44.6,44.6 42.7,44.6 c 20.5,18.6 50.2,22.3 72.5,5.6 l 46.4,-33.4 c 16.7,-11.2 37.2,-13.1 55.8,-3.7 11.1,3.7 20.4,7.4 31.5,11 18.7,7.5 31.6,24.2 35.4,44.6 l 9.3,55.8 c 5.5,26 27.8,46.4 55.7,46.4 h 61.3 63.2 c 27.8,0 50.1,-20.4 55.7,-46.4 l 9.3,-55.8 c 3.7,-20.4 16.7,-37.1 35.2,-44.6 v 0" /></g><g
         transform="scale(1.71412)"
         id="g256"><path
           inkscape:connector-curvature="0"
           id="path258"
           style="fill:#18327e;fill-opacity:1;fill-rule:evenodd;stroke:none"
           d="m 15315.1,16187.9 c 9.2,-3.7 16.6,-7.4 23.9,-11 14.7,-5.5 31.3,-5.5 44.1,3.6 l 34.9,25.7 c 18.4,12.9 42.3,11.1 57,-5.4 l 33,-33.1 35,-33.1 c 14.7,-16.5 16.5,-38.6 3.7,-57 l -23.9,-34.9 c -9.3,-12.9 -11.1,-29.4 -5.6,-44.1 3.7,-7.3 7.4,-14.7 11,-23.8 5.5,-14.7 16.5,-24 33.1,-27.6 l 42.3,-7.4 c 22.1,-3.7 36.8,-22 36.8,-42.2 v -47.8 -47.8 c 0,-22 -14.7,-40.3 -36.8,-44.1 l -42.3,-7.3 c -16.6,-1.8 -27.6,-12.9 -33.1,-27.6 -3.6,-7.3 -7.3,-16.5 -11,-23.8 -5.5,-14.8 -3.7,-29.5 5.6,-42.3 l 23.9,-36.8 c 12.8,-16.5 11,-40.4 -3.7,-55.1 l -35,-35 -33,-33 c -14.7,-14.7 -38.6,-18.4 -57,-5.5 l -34.9,25.7 c -12.8,9.2 -29.4,11 -44.1,3.7 -7.3,-3.7 -14.7,-7.4 -23.9,-9.2 -14.7,-5.5 -23.8,-18.4 -27.5,-33.1 l -7.4,-44.1 c -3.7,-20.2 -20.1,-36.7 -42.3,-36.7 h -47.7 -47.8 c -3.6,0 -7.3,1.9 -11,1.9 v 0 c 42.3,7.3 71.7,42.2 71.7,84.4 v 123.2 c 0,5.5 0,12.8 -2,18.4 117.7,5.4 213.3,102.8 213.3,224.1 0,123.2 -101.1,224.1 -224.2,224.1 -71.7,0 -136,-34.8 -176.4,-88.1 l -31.3,31.2 c -29.4,29.4 -75.3,33.1 -110.2,9.2 l -7.4,-5.5 c 0,7.3 -1.8,14.7 -7.3,22 l -25.8,34.9 c -11,18.4 -9.1,40.5 5.6,57 l 33.1,33.1 34.9,33.1 c 14.7,16.5 38.6,18.3 55.1,5.4 l 36.7,-25.7 c 12.9,-9.1 27.6,-9.1 42.3,-3.6 9.2,3.6 16.5,7.3 23.9,11 14.7,5.5 25.7,16.5 27.5,33.1 l 7.4,42.2 c 3.7,22 22,36.8 44.1,36.8 h 47.8 47.7 c 22.2,0 38.6,-14.8 42.3,-36.8 l 7.4,-42.2 c 3.7,-16.6 12.8,-27.6 27.5,-33.1 v 0" /></g><g
         transform="scale(1.75199)"
         id="g260"><path
           inkscape:connector-curvature="0"
           id="path262"
           style="fill:#18327e;fill-opacity:1;fill-rule:evenodd;stroke:none"
           d="m 13617.8,16109.4 c 95.3,25.2 194.2,-32.3 219.3,-129.4 23.3,-97.1 -34.1,-194.2 -131.2,-219.3 -95.3,-25.2 -194.2,34.1 -219.3,129.4 -23.4,97.1 34.1,196 131.2,219.3 z m 75.5,115.1 c 7.1,-1.8 12.6,-1.8 19.8,-3.6 12.6,-1.8 25.1,1.8 34.2,12.6 l 21.5,26.9 c 12.6,12.7 30.6,16.2 44.9,7.2 l 34.2,-19.8 32.3,-19.7 c 14.4,-9 21.6,-27 14.4,-43.2 l -12.5,-32.3 c -3.6,-12.6 -1.9,-25.2 5.3,-36 5.5,-5.4 9.1,-10.8 12.6,-16.1 7.2,-10.8 19.8,-16.3 32.4,-14.4 l 34.1,1.7 c 18,1.9 34.2,-8.9 37.8,-25.1 l 9,-37.8 10.8,-37.7 c 3.6,-16.2 -5.4,-34.2 -19.8,-39.5 l -32.4,-14.5 c -12.5,-5.3 -19.7,-16.1 -21.5,-28.7 0,-7.2 -1.8,-14.4 -1.8,-21.6 -3.6,-12.6 1.8,-23.4 10.8,-32.3 l 26.9,-23.4 c 12.7,-10.8 16.2,-28.8 7.2,-45 l -19.8,-32.3 -19.7,-32.4 c -9,-16.1 -27,-21.6 -43.2,-16.1 l -32.3,12.5 c -12.6,5.4 -25.3,3.6 -34.2,-5.3 -5.4,-3.6 -10.8,-7.2 -16.2,-12.7 -10.8,-7.1 -16.1,-17.9 -16.1,-30.5 l 3.6,-36 c 1.7,-16.2 -9,-32.3 -27.1,-36 l -37.7,-10.7 -36,-9 c -17.9,-3.6 -34.1,3.6 -41.2,19.7 l -14.4,32.5 c -5.5,12.5 -16.3,19.7 -28.8,19.7 -7.2,1.8 -12.6,1.8 -19.8,3.6 -12.6,1.8 -25.2,-1.8 -34.2,-10.8 l -21.6,-26.9 c -10.7,-14.4 -30.5,-16.2 -44.9,-7.2 l -34.1,18 -32.4,19.7 c -14.4,9 -21.5,27 -14.4,43.2 l 12.6,34.1 c 3.6,10.8 1.8,23.4 -5.4,34.2 -5.4,5.4 -9,10.8 -12.6,16.2 -7.2,10.7 -19.7,16.1 -32.3,14.3 l -34.2,-1.8 c -18,-1.8 -32.4,9 -37.8,25.2 l -8.9,37.7 -9,37.8 c -5.4,16.2 3.6,34.2 19.8,41.4 l 30.5,14.3 c 12.6,5.5 19.8,14.4 21.6,27 0,7.2 1.8,14.4 3.6,21.6 1.8,12.6 -3.6,25.1 -12.6,32.3 l -26.9,23.4 c -12.7,10.8 -16.2,30.6 -7.2,44.9 l 19.7,32.4 19.8,34.1 c 9,14.5 27,19.8 43.1,14.5 l 32.4,-12.6 c 12.6,-5.4 25.2,-1.9 34.2,5.4 5.3,3.6 10.8,8.9 16.1,12.5 10.8,7.2 16.2,18 16.2,30.6 l -3.6,36 c -1.8,17.9 10.8,32.4 27,37.7 l 37.7,9 36,9 c 18,3.6 34.1,-3.6 41.3,-19.8 l 14.4,-32.4 c 5.5,-10.7 16.2,-17.9 28.8,-19.7 v 0" /></g><g
         transform="scale(1.7176)"
         id="g264" /><path
         d="m 2166.4141,3480.4102 c 0.017,0.2076 0.031,0.4014 0.047,0.6015 0.057,0.3216 0.112,0.6454 0.1719,0.9649 3.7284,-0.088 7.2722,-0.1738 10.7461,-0.2539 -3.698,-0.4358 -7.3305,-0.8745 -10.9648,-1.3125 z"
         transform="matrix(7.5000002,0,0,-7.5000002,0,40000.001)"
         style="font-style:normal;font-weight:normal;font-size:1800px;line-height:1.25;font-family:sans-serif;fill:#18327e;fill-opacity:1;stroke:none;stroke-width:1"
         id="text274" /><path
         style="fill:#ff3e00;stroke:none;stroke-width:4.8717;fill-opacity:1"
         d="m 2481.3094,3128.3967 c -23.1021,-16.1813 -25.8682,-33.4527 -24.4143,-152.4411 l 1.3439,-109.9939 -23.5241,-31.666 c -49.4614,-66.5806 -78.0659,-146.6064 -83.8273,-234.5213 -3.1108,-47.4687 -3.1502,-47.5852 -20.9191,-61.8647 -9.7913,-7.8685 -23.1667,-24.4182 -29.7231,-36.7772 -6.5564,-12.3589 -13.2288,-22.4708 -14.8276,-22.4708 -5.0361,0 -64.3911,39.5714 -86.4074,57.607 -21.0441,17.2391 -49.5458,53.9668 -49.5458,63.8453 0,2.8665 7.2425,5.2119 16.0944,5.2119 21.4241,0 63.3272,21.3678 79.5599,40.5703 34.1989,40.4557 43.101,100.844 21.5036,145.8714 -23.5157,49.0271 -77.9719,80.2112 -131.582,75.35 -35.1078,-3.1835 -60.9918,-16.3935 -86.6376,-44.2159 -51.4475,-55.8139 -42.911,-146.031 18.209,-192.4404 14.3353,-10.8851 24.5794,-23.7087 29.6858,-37.1612 18.852,-49.6637 60.4046,-92.3649 134.1611,-137.8696 l 44.4566,-27.4278 5.757,-32.2147 c 6.9596,-38.9431 25.9979,-73.7862 54.578,-99.8857 l 21.2613,-19.416 -21.9226,-15.0509 c -45.9863,-31.5717 -77.5545,-84.8267 -87.4384,-147.5072 -2.3796,-15.0909 -7.9453,-46.0723 -12.368,-68.8475 -22.7772,-117.2919 28.4534,-254.3918 130.3153,-348.7414 195.4019,-180.9912 505.2201,-167.222 635.155,28.228 50.6683,76.216 67.6056,173.6923 45.9461,264.4261 -16.1212,67.5331 -65.4014,155.6066 -116.5667,208.3278 -14.952,15.4068 -25.667,28.0123 -23.8111,28.0123 1.856,0 19.9306,-6.5768 40.1658,-14.6151 64.4854,-25.6163 118.6787,-17.6816 155.7715,22.8075 l 16.8259,18.3664 27.5985,-13.5356 c 25.5012,-12.507 84.7984,-62.9124 84.7984,-72.0827 0,-2.1933 -6.9834,-13.8951 -15.5186,-26.0042 -12.0875,-17.1486 -15.9786,-28.3758 -17.5991,-50.779 -2.6422,-36.5282 4.3805,-57.5506 28.3048,-84.7301 72.2727,-82.1061 220.3546,-45.7995 240.3324,58.9246 1.6964,8.8929 0.8868,25.9752 -1.7992,37.9608 -14.9591,66.7503 -84.7209,108.6851 -158.2944,95.1529 l -29.3156,-5.3919 -36.5336,35.232 c -24.4915,23.619 -48.9518,41.5265 -74.208,54.3281 -24.7803,12.5604 -37.6743,21.938 -37.6743,27.3998 0,15.4868 -14.9405,50.8621 -28.7596,68.0953 l -13.7581,17.1573 11.8602,46.1748 c 10.7467,41.8397 11.6513,53.2644 9.6351,121.6862 -2.4271,82.3663 -9.3152,114.3904 -37.5969,174.7969 -8.3045,17.7377 -19.2393,49.9936 -24.2994,71.6799 -16.4499,70.499 -63.3368,195.2161 -81.2652,216.1613 -17.7457,20.7318 -36.7523,27.54 -56.2207,20.1381 -13.1562,-5.002 -18.6569,-22.0328 -25.8475,-80.0278 -2.4331,-19.6239 -4.2716,-22.9441 -11.0861,-20.0216 -85.1672,36.5247 -172.1468,45.3297 -241.5257,24.4497 l -23.2635,-7.0013 -8.7527,20.3567 c -58.3648,135.7436 -69.4009,154.3284 -91.6438,154.3284 -7.4253,0 -18.6044,-3.5749 -24.8425,-7.9442 z m 34.6874,-24.9398 c 13.0927,-14.8103 101.1507,-223.4511 101.1507,-239.662 0,-18.2037 -9.4188,-37.9556 -24.5261,-51.4334 l -10.9087,-9.7319 7.9741,15.5911 c 15.0643,29.4544 10.823,47.1165 -38.4968,160.3114 -25.5589,58.6608 -50.834,110.3477 -56.1669,114.8597 -9.1823,7.769 -9.2368,8.4711 -1.0283,13.249 11.7697,6.8508 13.3308,6.6249 22.002,-3.1839 z m 480.3483,-196.4126 c 14.1181,-43.3006 24.6962,-79.7014 23.5069,-80.8907 -7.8971,-7.8971 -30.3283,47.3678 -74.4893,183.5232 -1.3036,4.0191 3.8585,0.285 11.4715,-8.2983 9.7244,-10.9639 21.477,-39.0238 39.5109,-94.3342 z m -244.5439,27.9264 c 15.7015,-11.6146 43.4648,-36.9927 61.6963,-56.3958 l 33.148,-35.2784 -22.1656,-19.5109 c -29.9154,-26.3326 -39.3306,-57.5355 -35.1466,-116.4791 l 2.9846,-42.048 -115.5974,-3.0757 c -111.5107,-2.9669 -174.7361,-9.1046 -256.5374,-24.9035 -21.2488,-4.1039 -39.831,-6.2649 -41.2938,-4.8021 -4.1938,4.1939 17.6754,83.4671 31.3439,113.6179 6.8079,15.0174 21.5029,40.8581 32.6554,57.4239 l 20.2774,30.1194 12.5333,-25.2477 c 14.4282,-29.0649 35.1354,-42.2793 66.2706,-42.2913 29.716,-0.01 66.6424,12.6792 81.1541,27.8902 27.3871,28.707 29.8711,60.7099 8.5856,110.6184 -7.9225,18.5761 -13.7508,34.4284 -12.9519,35.2274 4.243,4.243 62.3988,15.4969 81.8907,15.8468 19.3489,0.3474 26.7164,-2.6356 51.1528,-20.7115 z m 87.28,-2.8757 c 116.7687,-44.8519 212.5658,-164.7474 238.9577,-299.0691 4.582,-23.3199 7.1853,-43.5453 5.7852,-44.9454 -1.4001,-1.4001 -9.4055,1.3593 -17.7897,6.132 -14.1913,8.0782 -15.2463,10.5415 -15.275,35.6662 -0.092,80.241 -47.3995,161.5833 -113.0569,194.3928 -16.3952,8.1927 -32.8247,14.8959 -36.5102,14.8959 -11.8144,0 -31.4658,15.8396 -80.5608,64.9346 -53.7091,53.7092 -52.6569,55.3057 18.4497,27.993 z m -740.7694,-156.5058 c 21.6311,-10.5924 30.7544,-11.9282 81.4817,-11.9306 h 57.1233 l 2.8525,-12.9895 c 5.6302,-25.6374 -11.8345,-66.2628 -36.994,-86.0532 -16.9831,-13.3589 -50.8019,-21.5941 -73.1638,-17.8161 -25.5223,4.312 -55.6584,27.218 -68.2303,51.8609 -8.0996,15.8766 -9.9529,26.5791 -8.3766,48.3723 1.8446,25.5001 10.7031,46.1969 18.0261,42.1156 1.6074,-0.8958 13.8839,-6.9964 27.2811,-13.5568 z m 710.7222,-154.4303 c 16.0438,-34.2149 33.7515,-55.1449 67.2985,-79.5449 18.5996,-13.5282 35.7782,-30.2444 38.6114,-37.5721 7.1245,-18.4259 2.9142,-51.8514 -10.8673,-86.2764 l -11.7018,-29.2302 -48.7052,-3.1264 c -70.5921,-4.5315 -134.4396,-16.8641 -189.9843,-36.6969 -26.7944,-9.5671 -59.4469,-18.4553 -72.5611,-19.7515 -23.1897,-2.292 -23.7489,-2.0416 -20.3739,9.1223 10.7747,35.6401 13.1314,53.36 10.5423,79.2642 -5.6108,56.1363 -40.064,108.3101 -86.9524,131.6756 -21.1237,10.5263 -31.6501,12.458 -67.8888,12.458 h -42.8887 v 21.2559 21.256 l 42.6273,8.4958 c 90.7287,18.0825 172.743,25.8341 279.2203,26.3905 l 105.0572,0.549 z m 272.8166,-106.8072 c -0.9651,-76.273 -30.4488,-154.434 -83.3564,-220.9772 -27.1747,-34.1782 -28.1988,-34.9143 -29.599,-21.2739 -3.1123,30.3171 -16.4542,65.654 -32.9462,87.2597 l -17.2564,22.6072 11.004,44.6933 c 13.1921,53.5803 24.2936,70.3231 59.9843,90.4656 20.3403,11.4794 30.3202,21.1891 40.379,39.2857 l 13.3612,24.0377 19.4868,-11.5503 19.4868,-11.5502 z m -637.6483,27.6421 c 5.3588,-2.3028 7.2233,-4.341 4.1433,-4.5293 -3.08,-0.1885 -16.9967,-8.0118 -30.926,-17.3855 -13.9293,-9.3737 -27.2968,-15.825 -29.7057,-14.3362 -2.4089,1.4887 -15.3474,2.7918 -28.7523,2.8956 -13.4049,0.1038 -24.3725,0.9252 -24.3725,1.8253 0,4.1061 32.3015,24.0145 48.1571,29.6807 20.0911,7.1798 47.1562,7.9943 61.4561,1.8494 z m 62.1029,-37.7556 c 27.6159,-28.3446 39.9826,-60.2695 40.1019,-103.5236 0.075,-26.9922 -2.4446,-41.5933 -9.6426,-55.8889 -8.6208,-17.1216 -12.8731,-20.1537 -36.9082,-26.3172 -29.4188,-7.5441 -44.4807,-5.5581 -62.1001,8.188 l -11.3177,8.8298 12.5357,23.5763 c 20.8231,39.163 15.8169,86.5116 -12.42,117.4664 -9.0454,9.9159 -9.0151,10.2559 1.7878,20.1123 14.8517,13.5506 38.0424,25.3931 50.1914,25.6307 5.4849,0.1071 17.9822,-8.026 27.7718,-18.0738 z m 584.1252,-158.3302 c 17.827,-34.5938 13.2842,-72.1952 -12.0858,-100.0361 -11.5075,-12.6283 -26.4515,-11.4884 -57.8691,4.4142 l -18.074,9.1484 22.9457,30.4485 c 12.6201,16.7467 28.4225,40.8618 35.1164,53.5891 6.694,12.7273 13.7743,23.1406 15.7341,23.1406 1.9597,0 8.3644,-9.3171 14.2327,-20.7047 z m -669.1925,-35.4761 c 14.5708,-8.6102 15.2532,-10.013 7.5943,-15.6133 -14.703,-10.7511 -44.5879,-7.4383 -65.3485,7.2441 -10.4187,7.3685 -18.99,14.5413 -19.0472,15.9397 -0.057,1.3984 13.5976,2.3957 30.3441,2.2162 20.9316,-0.2246 35.4517,-3.2832 46.4573,-9.7867 z m 290.0979,-19.736 c 59.5776,-15.4068 125.9512,-51.6335 182.2806,-99.4887 30.3224,-25.7608 30.4481,-25.975 30.4481,-51.8952 0,-14.3151 -0.85,-26.0276 -1.8889,-26.0276 -1.0389,0 -16.0286,6.6168 -33.3105,14.704 -109.4969,51.2398 -233.0715,30.9586 -309.5571,-50.8047 l -28.0727,-30.0099 -18.2148,7.4789 c -13.0041,5.3394 -17.3169,9.5694 -15.076,14.7865 25.0269,58.2641 19.9512,129.3327 -12.4292,174.0326 l -14.2944,19.7328 32.6537,15.051 c 17.9595,8.2781 44.6488,17.1766 59.3095,19.7745 33.54,5.9433 89.1049,2.7632 128.1517,-7.3342 z m -248.2443,-41.2787 17.3642,-11.8981 -32.7418,-8.0857 -32.7418,-8.0858 -12.1792,11.457 c -6.6986,6.3013 -17.66,13.5604 -24.3585,16.1313 l -12.1793,4.6744 12.1793,5.3027 c 20.572,8.9569 65,3.9735 84.6571,-9.4958 z m 558.3694,-30.7155 c 0.034,-3.8842 -24.6077,-1.2252 -45.3814,4.8969 -8.3626,2.4644 -8.3997,3.1495 -0.6349,11.7294 8.0397,8.8838 8.719,8.8422 27.1125,-1.6591 10.3765,-5.9242 18.8832,-12.6594 18.9038,-14.9672 z m -516.1423,-30.5727 c 9.0377,-27.3848 3.6358,-82.5974 -11.2659,-115.147 -15.5173,-33.8942 -50.436,-72.1074 -76.7225,-83.9609 l -19.6526,-8.8621 -14.9395,14.192 c -8.2167,7.8056 -19.4021,22.8723 -24.8565,33.4816 l -9.917,19.2898 11.4659,7.5046 c 42.6042,27.8849 63.7761,63.4053 66.9045,112.2461 1.1156,17.4163 4.496,33.2767 7.512,35.2452 3.016,1.9686 19.0152,3.6128 35.5539,3.6538 l 30.0703,0.075 z m 866.1478,-18.5398 c 44.552,-15.7189 70.1223,-48.7087 70.1223,-90.4694 0,-21.7104 -10.2578,-49.5631 -20.6097,-55.9609 -2.7168,-1.6791 -12.0398,2.003 -20.7178,8.1823 -12.0504,8.5806 -23.9589,11.6482 -50.4019,12.9835 -38.2899,1.9336 -59.9645,-5.4887 -77.8005,-26.6422 -13.0398,-15.4649 -23.2268,-11.5237 -38.7707,14.9998 -20.1514,34.3857 -15.4641,78.22 11.4004,106.6135 31.6089,33.4078 83.087,45.7084 126.7779,30.2934 z m -391.3002,-84.5504 c 12.015,-20.5252 21.8454,-39.1066 21.8454,-41.2921 0,-2.1854 -12.0574,8.3765 -26.7943,23.471 -22.0584,22.5935 -26.7943,30.4326 -26.7943,44.3506 0,22.7848 5.6303,18.0792 31.7432,-26.5295 z m -692.1722,-24.723 c 5.5315,-5.0178 16.3163,-11.1233 23.9661,-13.5677 9.8025,-3.1322 15.6788,-9.5932 19.9044,-21.8846 3.2976,-9.5922 10.8896,-24.3133 16.8711,-32.7135 9.0934,-12.7705 9.5919,-15.2731 3.0421,-15.2731 -10.8864,0 -42.294,16.5823 -52.2406,27.5815 -4.5416,5.0223 -12.7145,18.9572 -18.1618,30.9665 -15.2554,33.6321 -12.8771,42.5761 6.6187,24.8909 z m 249.5413,-36.3047 c 0.6993,-0.6992 -3.0246,-15.0742 -8.2752,-31.9443 -28.2504,-90.7687 3.0039,-191.2424 81.7978,-262.9567 33.2291,-30.2435 35.3198,-33.3681 35.3198,-52.7863 0,-24.9353 -18.4038,-48.7191 -48.0397,-62.083 -18.8631,-8.506 -20.0261,-8.4557 -52.6107,2.2754 -107.5014,35.4034 -196.2943,106.8444 -233.9363,188.2203 -20.7594,44.8783 -31.13,115.6368 -22.9457,156.5581 l 2.9731,14.8658 20.0317,-10.4411 c 12.1282,-6.3216 32.1703,-11.214 50.7976,-12.4001 26.9044,-1.7132 34.6778,-0.033 61.9323,13.3841 28.5885,14.0741 75.6468,57.1383 75.6468,69.2262 0,3.4986 32.1678,-6.7776 37.3085,-11.9184 z m -273.0248,-10.2139 c 3.4297,-7.3991 4.5117,-29.3297 2.9347,-59.48 -3.0814,-58.9101 -9.908,-47.5432 -14.25,23.7273 -2.8856,47.3653 0.6924,58.6706 11.3153,35.7527 z m 438.502,-70.35 c 16.2411,-32.7638 -31.3393,-82.4794 -55.6604,-58.1582 -10.61,10.6099 -6.9301,40.8351 6.9851,57.3723 15.8842,18.8773 39.5181,19.2589 48.6753,0.7859 z m 229.9491,-126.9622 c 1.9495,-20.4544 -6.0896,-36.5045 -21.89,-43.7037 -28.0847,-12.7963 -42.4673,22.3779 -20.5457,50.2468 7.9615,10.1214 13.7813,12.7651 25.5764,11.6183 13.4756,-1.3101 15.4565,-3.444 16.8593,-18.1614 z m 0.8047,-134.3959 c -11.5138,-13.8733 -70.6012,-49.805 -102.803,-62.5157 -39.016,-15.4004 -111.8808,-28.6101 -146.7141,-26.5981 l -25.5057,1.4733 18.4853,20.4201 c 29.9058,33.0358 50.7471,40.4762 113.3786,40.4762 56.2662,0 96.1733,7.55 127.5831,24.1374 22.1044,11.6733 23.2609,11.8668 15.5758,2.6068 z"
         id="path958"
         inkscape:connector-curvature="0"
         transform="matrix(7.5000002,0,0,-7.5000002,0,40000.001)" /><path
         style="fill:#ff3e00;stroke:none;stroke-width:4.8717;fill-opacity:1"
         d="m 3314.7746,1907.6988 c -3.2153,-3.2153 -5.846,-9.8391 -5.846,-14.7195 0,-14.4242 -20.7144,-21.0204 -35.5288,-11.3136 -11.977,7.8476 -12.8971,7.6434 -28.5435,-6.3366 -15.5395,-13.8846 -15.9303,-15.1017 -10.0613,-31.3321 7.7092,-21.3194 4.0995,-30.7445 -14.2209,-37.131 -13.691,-4.7727 -14.4149,-6.3508 -13.0066,-28.3527 1.2584,-19.6605 3.1477,-23.5345 12.0988,-24.809 18.2797,-2.6029 23.7108,-13.6188 16.5194,-33.5063 -5.9721,-16.5156 -5.5853,-18.0036 8.2866,-31.8755 13.8719,-13.8719 15.3599,-14.2587 31.8754,-8.2866 19.8876,7.1914 30.9035,1.7603 33.5063,-16.5194 1.2709,-8.9251 5.153,-10.8419 24.4771,-12.0852 22.2117,-1.4292 23.2043,-0.9088 30.1995,15.833 5.5434,13.2672 10.0687,17.3107 19.3732,17.3107 6.6772,0 13.4952,-2.1922 15.1512,-4.8716 5.1781,-8.3784 19.7805,-5.3441 30.8168,6.4036 11.6736,12.4259 13.6995,27.5144 4.8787,36.3351 -7.9802,7.9803 2.6159,30.3367 14.3785,30.3367 13.0609,0 20.5754,9.7368 20.491,26.5508 -0.095,18.9804 -4.1632,24.7872 -20.0928,28.6816 -16.5924,4.0564 -20.4867,14.9398 -12.8763,35.9858 5.869,16.2304 5.4781,17.4475 -10.0614,31.3321 -15.4817,13.8328 -16.6764,14.1122 -28.1627,6.5861 -15.5153,-10.1661 -30.1517,-5.3534 -34.2125,11.2496 -1.7585,7.1899 -5.6,14.6831 -8.5368,16.6517 -8.4404,5.6577 -34.4754,4.3098 -40.9029,-2.1177 z m 52.2012,-70.8908 c 32.4196,-16.5975 43.6106,-59.1892 23.4894,-89.3984 -24.5372,-36.8393 -68.9494,-42.2943 -99.0747,-12.1689 -21.6853,21.6852 -25.5278,44.9819 -12.0213,72.8826 16.778,34.6587 52.8609,46.4732 87.6066,28.6847 z"
         id="path960"
         inkscape:connector-curvature="0"
         transform="matrix(7.5000002,0,0,-7.5000002,0,40000.001)" /><path
         style="fill:#ff3e00;stroke:none;stroke-width:4.8717;fill-opacity:1"
         d="m 3469.3153,1807.0763 c 2.888,-5.3964 5.251,-17.5869 5.251,-27.0901 0,-14.1856 2.0973,-17.8048 11.7173,-20.2192 20.8335,-5.2289 34.5638,-24.7692 34.5638,-49.1897 0,-18.6133 -2.406,-24.0796 -15.9098,-36.1453 -18.8863,-16.8748 -42.6726,-18.834 -60.3019,-4.9668 -10.2937,8.0971 -12.9219,8.3975 -21.1062,2.413 -5.1415,-3.7596 -13.1663,-5.6239 -17.8326,-4.1428 -5.4442,1.7279 -10.404,-0.8941 -13.8416,-7.3173 -4.4515,-8.3177 -3.2717,-12.0957 6.9783,-22.3456 10.2236,-10.2237 14.0406,-11.423 22.2955,-7.0051 13.5432,7.2482 28.1335,1.7636 29.988,-11.2727 1.205,-8.4706 5.2551,-11.0423 19.2281,-12.2091 15.9041,-1.3281 18.2282,0.032 22.8872,13.3971 5.4521,15.6401 18.42,19.6859 29.0444,9.0615 4.5041,-4.5041 9.0323,-2.7306 20.0994,7.8723 12.2218,11.7093 13.5414,15.3192 9.135,24.9901 -6.6536,14.603 -1.931,26.5401 10.4999,26.5401 6.3918,0 10.8664,4.2348 12.8576,12.1684 4.1948,16.7135 -0.3262,26.0798 -15.3444,31.7897 -11.5129,4.3772 -12.4299,6.5885 -9.6225,23.2053 2.5784,15.2612 1.1953,20.1594 -8.1792,28.9663 -8.0314,7.5451 -13.3663,9.2816 -18.5146,6.0264 -12.8512,-8.1257 -23.6034,-5.0323 -30.1526,8.6751 -3.7148,7.7748 -11.1413,14.0713 -17.6961,15.0036 -9.9548,1.4158 -10.672,0.4422 -6.044,-8.2052 z"
         id="path962"
         inkscape:connector-curvature="0"
         transform="matrix(7.5000002,0,0,-7.5000002,0,40000.001)" /><path
         style="fill:#ff3e00;stroke:none;stroke-width:4.8717;fill-opacity:1"
         d="m 3193.7696,1687.0109 c -3.3761,-8.798 -24.483,-9.7833 -27.3191,-1.2752 -1.5733,4.7201 -4.7696,4.7753 -14.6934,0.2537 -9.2346,-4.2076 -13.1029,-10.1002 -14.2283,-21.6739 -1.2002,-12.3438 -4.2667,-16.5253 -13.7247,-18.7152 -15.5591,-3.6026 -19.755,-26.8324 -6.5859,-36.4618 7.6561,-5.5983 7.9454,-7.9185 2.3022,-18.4629 -9.1097,-17.0215 -0.4292,-31.687 19.9317,-33.6744 12.0724,-1.1784 16.2777,-4.3014 18.4551,-13.7054 3.3783,-14.591 27.3629,-20.2747 32.2137,-7.6338 3.4518,8.9953 17.0268,10.0321 25.1389,1.9199 9.6617,-9.6617 32.1007,3.314 28.6369,16.5597 -3.312,12.6651 4.3473,23.2561 16.8186,23.2561 12.7185,0 18.3624,23.8167 7.5222,31.7432 -9.4193,6.8876 -10.3671,17.5556 -2.2783,25.6444 8.7435,8.7435 -4.6734,31.1351 -17.6525,29.4603 -13.3916,-1.7279 -22.197,4.3113 -22.197,15.224 0,14.5984 -27.1983,20.9407 -32.3401,7.5413 z m 25.9365,-47.1303 c 22.7562,-21.3783 11.1316,-62.3142 -19.9076,-70.1045 -26.2905,-6.5985 -56.1126,23.2236 -49.5141,49.5141 7.6604,30.5216 46.567,42.0612 69.4217,20.5904 z"
         id="path964"
         inkscape:connector-curvature="0"
         transform="matrix(7.5000002,0,0,-7.5000002,0,40000.001)" /><path
         d="m 2166.4141,3480.4102 c 0.017,0.2076 0.031,0.4014 0.047,0.6015 0.057,0.3216 0.112,0.6454 0.1719,0.9649 3.7284,-0.088 7.2722,-0.1738 10.7461,-0.2539 -3.698,-0.4358 -7.3305,-0.8745 -10.9648,-1.3125 z"
         transform="matrix(7.5000002,0,0,-7.5000002,0,40000.001)"
         style="fill:#ff3e00;stroke:none;stroke-width:4.8717;fill-opacity:1"
         id="path980" /></g></g></svg>
